<svg width="1680" height="530" viewBox="0 0 1680 530" fill="none" xmlns="http://www.w3.org/2000/svg">
<g clip-path="url(#clip0_28_3769)">
<g clip-path="url(#clip1_28_3769)">
<g clip-path="url(#clip2_28_3769)">
<path d="M-0.604004 529.657C-0.604004 529.657 13.9042 481.774 69.9289 447.294C69.9289 447.294 60.2308 475.314 69.9289 495.784C69.9289 495.784 103.335 469.928 106.557 440.833C106.557 440.833 117.33 469.336 110.869 485.245C110.869 485.245 151.81 476.388 184.142 396.655C216.474 316.922 304.831 261.972 399.648 275.966C399.648 275.966 314.529 300.748 308.053 366.471C301.593 432.194 366.242 428.972 382.4 427.882C398.558 426.808 425.504 410.634 425.504 369.693C425.504 328.753 453.525 297.495 495.539 303.971C495.539 303.971 447.049 347.075 490.153 369.693C533.257 392.327 549.416 314.681 548.342 273.771C547.267 232.846 565.589 188.668 658.243 156.351C750.911 124.019 774.62 40.2234 759.535 0.761719C759.535 0.761719 820.946 42.1226 781.08 122.945C741.213 203.752 691.649 169.334 698.109 264.135C704.569 358.937 826.332 329.827 810.174 254.406C794.016 178.985 823.11 169.287 864.051 156.351C904.991 143.415 921.165 141.267 942.709 119.723C942.709 119.723 923.889 165.287 864.222 182.908C812.883 198.07 848.966 267.342 886.685 241.486C924.403 215.629 937.323 202.693 957.793 226.402C957.793 226.402 914.689 224.3 924.387 265.225C934.085 306.134 949.169 310.446 927.625 355.715C906.081 400.983 876.987 439.759 915.779 435.447C954.571 431.135 998.75 378.333 1013.83 344.942C1028.92 311.536 1070.95 253.348 1137.74 231.803C1137.74 231.803 1083.87 255.511 1079.56 308.314C1075.24 361.116 1087.11 357.878 1063.4 391.285C1039.69 424.691 1053.7 478.567 1096.8 454.859C1139.91 431.151 1135.6 386.973 1218.57 384.824C1218.57 384.824 1164.69 407.458 1178.7 450.547C1192.71 493.651 1271.37 472.091 1293.99 436.537C1316.62 400.983 1310.4 365.864 1282.78 347.542C1282.78 347.542 1308.39 342.234 1333.53 364.183C1333.53 364.183 1293.72 322.729 1337.12 262.267C1337.12 262.267 1334.28 287.174 1351.35 291.439C1351.35 291.439 1364.86 216.735 1446.68 203.923C1446.68 203.923 1403.28 221.716 1384.07 274.363C1364.86 327.009 1413.25 319.895 1423.91 298.553C1434.59 277.211 1450.23 275.079 1450.23 275.079C1450.23 275.079 1422.49 302.118 1438.85 338.404C1455.21 374.69 1454.5 391.051 1426.04 405.279C1397.58 419.507 1367 435.868 1382.64 473.586C1398.29 511.289 1485.09 490.663 1498.61 423.072C1498.61 423.072 1518.54 462.207 1487.93 494.212C1487.93 494.212 1529.2 498.477 1569.04 460.774C1569.04 460.774 1568.32 492.079 1551.24 503.458C1551.24 503.458 1585.48 482.817 1614.71 506.198C1643.94 529.579 1680.57 529.704 1680.57 529.704H-0.604004V529.657Z" fill="#FF66C8"/>
</g>
</g>
</g>
<defs>
<clipPath id="clip0_28_3769">
<rect width="1680" height="528.88" fill="white" transform="translate(0 0.777344)"/>
</clipPath>
<clipPath id="clip1_28_3769">
<rect width="1680" height="528.88" fill="white" transform="translate(0 0.777344)"/>
</clipPath>
<clipPath id="clip2_28_3769">
<rect width="1681.21" height="528.88" fill="white" transform="translate(-0.604004 0.777344)"/>
</clipPath>
</defs>
</svg>
