<svg width="586" height="1109" viewBox="0 0 586 1109" fill="none" xmlns="http://www.w3.org/2000/svg">
<g clip-path="url(#clip0_3_19610)">
<g clip-path="url(#clip1_3_19610)">
<path d="M399.082 241.511L397.428 244.415C395.958 242.596 394.159 241.069 392.126 239.913C388.145 237.632 383.464 236.896 378.975 237.845C381.816 230.847 384.101 223.637 385.81 216.281C388.188 216.47 390.556 217.174 392.756 218.434C400.878 223.059 403.707 233.399 399.082 241.511Z" fill="white"/>
<path d="M405.012 335.032C404.285 337.277 403.434 339.48 402.464 341.631C399.11 349.057 394.268 356.173 387.97 362.47C377.216 373.224 364.075 379.748 351.075 381.816C349.402 382.08 347.717 382.271 346.027 382.389C332.124 383.377 318.748 379.156 309.066 369.474C295.925 356.332 292.861 336.414 299.178 317.567C302.392 307.942 308.061 298.598 316.078 290.579C323.928 282.73 333.056 277.128 342.465 273.885L346.713 266.431C348.089 264.012 350.041 261.97 352.396 260.487C354.751 259.005 357.436 258.127 360.212 257.933L366.481 246.945C367.797 244.627 369.592 242.616 371.746 241.047C373.9 239.478 376.364 238.387 378.974 237.845C383.463 236.896 388.144 237.633 392.125 239.913C394.221 241.107 395.998 242.648 397.427 244.416C402.155 250.254 403.094 258.639 399.146 265.556L390.912 279.995C392.338 281.105 393.694 282.301 394.973 283.577C408.011 296.605 411.132 316.317 405.012 335.032Z" fill="white"/>
<path d="M345.275 79.304L343.592 82.3026C341.657 85.7433 325.281 80.1964 306.998 69.9229C288.715 59.6484 275.461 48.5285 277.389 45.0877L278.685 42.7758C267.625 40.1321 256.292 38.8007 244.92 38.809C165.039 38.809 100.283 103.565 100.283 183.447C100.283 183.87 100.283 184.303 100.292 184.726C100.348 191.879 100.931 198.91 101.993 205.772C105.237 207.441 107.925 210.018 109.73 213.189L116 224.178C118.776 224.372 121.461 225.25 123.816 226.732C126.171 228.215 128.123 230.256 129.499 232.675L133.747 240.129C143.156 243.381 152.283 248.975 160.132 256.824C176.141 272.832 182.777 294.123 179.3 312.378C198.992 322.427 221.299 328.085 244.92 328.085C264.107 328.085 282.427 324.353 299.178 317.566C302.393 307.941 308.06 298.597 316.079 290.579C323.928 282.73 333.055 277.127 342.464 273.885L346.714 266.43C348.089 264.011 350.041 261.97 352.396 260.487C354.751 259.005 357.436 258.127 360.212 257.933L366.482 246.944C367.798 244.626 369.593 242.616 371.747 241.047C373.901 239.478 376.365 238.386 378.975 237.845C381.815 230.848 384.1 223.637 385.808 216.281C388.3 205.514 389.555 194.498 389.55 183.447C389.55 142.548 372.573 105.605 345.275 79.304Z" fill="#4F75FA"/>
<path d="M345.275 79.304L343.592 82.3026C341.657 85.7433 325.281 80.1964 306.998 69.9229C288.715 59.6484 275.461 48.5285 277.389 45.0877L278.685 42.7758C267.625 40.1321 256.292 38.8007 244.92 38.809C165.039 38.809 100.283 103.565 100.283 183.447C100.283 183.87 100.283 184.303 100.292 184.726C100.348 191.879 100.931 198.91 101.993 205.772C105.237 207.441 107.925 210.018 109.73 213.189L116 224.178C118.776 224.372 121.461 225.25 123.816 226.732C126.171 228.215 128.123 230.256 129.499 232.675L133.747 240.129C143.156 243.381 152.283 248.975 160.132 256.824C176.141 272.832 182.777 294.123 179.3 312.378C198.992 322.427 221.299 328.085 244.92 328.085C264.107 328.085 282.427 324.353 299.178 317.566C302.393 307.941 308.06 298.597 316.079 290.579C323.928 282.73 333.055 277.127 342.464 273.885L346.714 266.43C348.089 264.011 350.041 261.97 352.396 260.487C354.751 259.005 357.436 258.127 360.212 257.933L366.482 246.944C367.798 244.626 369.593 242.616 371.747 241.047C373.901 239.478 376.365 238.386 378.975 237.845C381.815 230.848 384.1 223.637 385.808 216.281C388.3 205.514 389.555 194.498 389.55 183.447C389.55 142.548 372.573 105.605 345.275 79.304Z" fill="#B8B1FF"/>
<path d="M231.076 127.93C223.894 108.491 205.198 94.6263 183.257 94.6263C155.105 94.6263 132.281 117.45 132.281 145.602C132.281 173.756 155.105 196.569 183.257 196.569C194.078 196.586 204.621 193.145 213.347 186.746C211.256 181.09 210.19 175.106 210.198 169.075C210.198 152.183 218.414 137.209 231.076 127.93Z" fill="white"/>
<path d="M261.174 118.108C249.913 118.108 239.506 121.754 231.075 127.93C218.413 137.209 210.197 152.183 210.197 169.074C210.189 175.105 211.256 181.089 213.347 186.746C220.538 206.195 239.234 220.051 261.174 220.051C289.318 220.051 312.14 197.227 312.14 169.074C312.14 140.922 289.318 118.108 261.174 118.108Z" fill="white"/>
<path d="M198.89 220.05C186.745 220.05 176.894 229.892 176.894 242.037C176.894 254.182 186.745 264.033 198.89 264.033C211.035 264.033 220.885 254.192 220.885 242.037C220.885 229.882 211.035 220.05 198.89 220.05ZM187.298 68.0862L181.603 82.0061L223.781 99.262L229.476 85.3411L187.298 68.0862ZM314.745 105.145L310.43 119.545L265.432 106.067L269.747 91.6557L314.745 105.145ZM260.488 138.487C253.72 133.806 242.234 138.694 234.826 149.401C230.502 155.67 228.528 162.542 228.989 168.097V168.116C229.318 172.055 230.869 175.335 233.679 177.271C239.733 181.464 249.575 177.986 256.869 169.535L247.084 157.879H263.684C266.523 149.729 265.508 141.965 260.488 138.487ZM181.114 118.221C174.346 113.539 162.86 118.427 155.452 129.143C148.045 139.85 147.538 152.323 154.305 157.005C160.359 161.188 170.182 157.729 177.496 149.278L167.71 137.613H184.31C187.149 129.462 186.134 121.698 181.114 118.221Z" fill="black"/>
<path d="M182.797 458.915L138.053 492.924C132.283 497.307 127.606 502.964 124.385 509.454C121.165 515.945 119.489 523.091 119.488 530.337V557.944L35.7331 533.504C9.50742 525.853 -5.36177 498.189 2.73962 472.094L37.3592 360.525C47.6706 367.096 66.857 375.575 89.3983 383.104C111.817 390.596 132.14 395.343 144.36 396.32L129.743 443.433L182.797 458.915ZM514.317 462.355V547.641C514.317 579.808 494.906 607.444 467.157 619.467C457.634 623.593 447.125 625.887 436.08 625.887C427.5 625.894 418.976 624.49 410.851 621.733C399.195 629.074 355.024 634.921 298.163 636.782V596.851C298.162 587.523 300.937 578.407 306.134 570.662L340.473 519.488L355.4 497.248C357.978 493.405 361.463 490.255 365.547 488.076C369.63 485.898 374.187 484.757 378.815 484.756H397.371C395.534 480.678 393.126 476.883 390.218 473.485L375.723 456.556L358.766 436.74C369.735 431.692 387.53 419.66 406.358 404.075C424.086 389.402 438.543 375.048 446.025 365.215L503.017 431.795C510.309 440.308 514.317 451.147 514.317 462.355Z" fill="#94FCFF"/>
<path d="M357.834 532.564V547.641C357.834 569.243 366.595 588.813 380.752 602.97C389.217 611.445 399.514 617.864 410.85 621.733M397.371 484.756C400.105 490.822 401.518 497.4 401.516 504.054V532.695" fill="#94FCFF"/>
<path d="M528.652 878.24L452.117 812.966C446.942 808.555 442.787 803.073 439.937 796.9C437.087 790.726 435.61 784.008 435.61 777.208V721.231C456.112 699.78 468.698 670.706 468.698 638.69C468.698 632.147 468.172 625.728 467.157 619.467C457.634 623.593 447.125 625.887 436.08 625.887C427.499 625.894 418.976 624.49 410.85 621.732C399.194 629.074 355.024 634.92 298.163 636.782C285.793 637.186 272.82 637.402 259.444 637.402H258.777C220.622 637.384 185.738 635.607 158.874 632.693C142.33 630.887 128.831 628.66 119.488 626.131C110.191 623.621 105.002 620.81 105.002 617.85V664.324C105.002 665.724 105.049 667.125 105.143 668.516V668.553C105.181 669.23 105.238 669.907 105.302 670.584L105.312 670.603C106.91 687.423 114.929 702.981 127.703 714.04L137.254 722.321L129.677 784.07C127.439 802.288 136.013 820.129 151.617 829.783L223.866 874.433C224.147 873.935 224.476 873.465 224.843 873.004C232.983 862.833 254.697 863.782 263.035 872.741C263.035 872.741 290.098 855.952 304.01 822.648V837.933C304.01 840.838 304.283 843.704 304.809 846.514C306.767 857.108 312.314 866.705 320.516 873.69L338.15 888.73L356.932 904.748L426.999 964.514C432.377 968.16 439.013 966.336 445.48 962.492C444.681 959.813 443.788 956.551 443.036 953.28C441.26 945.459 443.741 940.844 459.721 938.005C475.71 935.167 484.584 931.97 494.887 940.138C498.712 943.175 503.159 946.371 507.774 948.411C520.455 932.328 529.451 914.543 532.411 900.527C532.834 898.516 533.135 896.589 533.305 894.755C533.99 887.405 532.59 881.558 528.652 878.24ZM158.874 684.205C142.33 682.399 128.831 680.172 119.488 677.644V646.135C128.831 648.663 142.33 650.891 158.874 652.696V684.205ZM259.444 688.914H258.777V657.405H259.444C272.82 657.405 285.793 657.189 298.163 656.785V688.294C285.793 688.698 272.82 688.914 259.444 688.914ZM304.01 791.356L285.859 780.141C291.928 780.032 297.987 779.602 304.01 778.853V791.356Z" fill="#B8B1FF"/>
<path d="M188.86 454.299V497.398L177.439 506.084C171.67 510.467 166.993 516.125 163.772 522.614C160.552 529.104 158.875 536.251 158.874 543.496V632.693C142.33 630.888 128.831 628.66 119.488 626.132V530.336C119.489 523.091 121.166 515.944 124.386 509.454C127.607 502.964 132.284 497.307 138.053 492.924L182.797 458.914L188.86 454.299Z" fill="#FFF769"/>
<path d="M336.27 439.899V461.715C333.482 463.685 331.074 466.144 329.164 468.972L280.66 540.761L266.832 561.224C261.579 568.993 258.773 578.157 258.777 587.535V637.403C220.622 637.384 185.739 635.607 158.873 632.693V543.496C158.874 536.251 160.551 529.104 163.771 522.614C166.992 516.124 171.669 510.467 177.439 506.084L188.86 497.398V439.899C200.854 446.516 229.336 451.178 262.565 451.178C295.794 451.178 324.276 446.526 336.27 439.899Z" fill="#94FCFF"/>
<path d="M119.488 609.559V626.132C110.191 623.621 105.002 620.811 105.002 617.85C105.002 614.889 110.191 612.078 119.488 609.559Z" fill="#4548CB"/>
<path d="M397.371 484.756H378.816C374.187 484.757 369.63 485.897 365.547 488.076C361.463 490.255 357.978 493.405 355.4 497.248L340.473 519.488L306.134 570.662C300.937 578.407 298.163 587.524 298.163 596.851V636.782C285.792 637.186 272.821 637.403 259.444 637.403H258.777V587.535C258.777 578.154 261.578 568.989 266.833 561.225L280.661 540.761L329.164 468.972C331.746 465.149 335.227 462.017 339.301 459.852C343.376 457.687 347.919 456.555 352.533 456.556H375.722L390.217 473.485C393.126 476.883 395.535 480.678 397.371 484.756ZM298.163 656.785V688.294C285.792 688.698 272.821 688.915 259.444 688.915H258.777V657.405H259.444C272.821 657.405 285.792 657.189 298.163 656.785ZM158.874 652.696V684.205C142.33 682.4 128.831 680.172 119.488 677.644V646.135C128.831 648.663 142.33 650.891 158.874 652.696Z" fill="#FFF769"/>
<path d="M101.995 205.772C96.5335 202.98 89.8216 202.905 84.087 206.166C82.0546 207.319 80.2567 208.844 78.7865 210.66L77.1315 207.755C72.5069 199.643 75.3358 189.303 83.4581 184.678C88.8624 181.596 95.2548 181.821 100.293 184.725C100.35 191.879 100.933 198.91 101.995 205.772Z" fill="white"/>
<path d="M179.3 312.378C177.627 321.176 173.603 329.269 167.146 335.728C162.07 340.803 155.988 344.375 149.342 346.481C146.25 347.468 143.044 348.126 139.754 348.484C122.458 350.335 103.084 343.557 88.2422 328.715C86.631 327.106 85.097 325.422 83.6455 323.667C83.1953 323.126 82.7534 322.577 82.3199 322.022C64.1496 298.729 63.1814 267.878 81.2388 249.82C82.5154 248.545 83.8716 247.352 85.2995 246.249L77.0653 231.81C73.1175 224.882 74.0578 216.507 78.7852 210.66C80.256 208.844 82.0542 207.32 84.0867 206.167C89.8213 202.905 96.5332 202.98 101.994 205.772C105.238 207.441 107.926 210.018 109.73 213.189L116 224.178C118.776 224.372 121.461 225.25 123.816 226.732C126.171 228.215 128.123 230.256 129.499 232.675L133.747 240.129C143.157 243.382 152.285 248.975 160.134 256.824C176.142 272.832 182.778 294.123 179.3 312.378Z" fill="white"/>
<path d="M336.882 391.939C329.436 400.23 325.066 406.735 325.103 409.95C310.487 414.18 287.907 416.887 262.565 416.887C218.507 416.887 182.797 408.7 182.797 398.595C182.797 388.489 218.507 380.312 262.565 380.312C296.367 380.312 325.273 385.133 336.882 391.939Z" fill="#D33163"/>
<path d="M342.343 431.636V432.885C342.343 435.377 340.181 437.746 336.271 439.898C324.276 446.525 295.785 451.178 262.565 451.178C229.345 451.178 200.854 446.516 188.86 439.898C184.949 437.737 182.797 435.367 182.797 432.885V398.594C182.797 408.699 218.507 416.887 262.565 416.887C287.907 416.887 310.487 414.18 325.103 409.95C325.103 410.523 325.263 410.993 325.554 411.35L342.343 431.636Z" fill="#69BFFF"/>
<path d="M411.612 351.528L402.466 341.63C403.435 339.479 404.285 337.276 405.013 335.032C417.516 327.211 426.539 323.536 428.626 326.054C430.947 328.865 424.039 338.763 411.612 351.528Z" fill="#D33163"/>
<path d="M411.611 351.529C404.101 359.237 394.579 367.997 383.853 376.871C376.249 383.16 368.813 388.875 361.933 393.782L351.075 381.815C364.076 379.747 377.217 373.224 387.971 362.47C394.268 356.173 399.11 349.056 402.466 341.631L411.611 351.529Z" fill="#C4D5FF"/>
<path d="M361.932 393.782C354.629 398.989 347.946 403.286 342.343 406.406C333.432 411.379 327.237 413.381 325.554 411.35C325.262 410.993 325.113 410.524 325.103 409.95C325.066 406.735 329.437 400.23 336.882 391.939C339.551 388.96 342.615 385.754 346.028 382.389C347.718 382.272 349.402 382.08 351.075 381.815L361.932 393.782Z" fill="#D33163"/>
<path d="M446.025 365.215C438.543 375.048 424.086 389.402 406.358 404.075C387.529 419.66 369.735 431.692 358.765 436.74C353.163 439.316 349.337 440.067 348.068 438.554H348.059L342.343 431.636L325.555 411.35C327.238 413.381 333.432 411.379 342.343 406.406C347.946 403.286 354.629 398.989 361.933 393.782C368.814 388.875 376.249 383.16 383.854 376.871C394.579 367.997 404.101 359.237 411.612 351.529C424.039 338.764 430.948 328.865 428.626 326.055L451.13 353.249C452.54 354.951 450.566 359.256 446.025 365.215Z" fill="#69BFFF"/>
<path d="M83.6455 323.657L77.6294 341.179C54.552 331.826 39.0799 322.614 40.4993 318.356C41.8908 314.191 59.0549 315.949 82.3199 322.022C82.7521 322.576 83.1844 323.112 83.6455 323.657ZM167.399 360.75C166.225 364.256 153.854 363.561 136.069 359.622L139.754 348.484C143.044 348.126 146.25 347.468 149.342 346.481C161.345 352.534 168.377 357.818 167.399 360.75Z" fill="#D33163"/>
<path d="M156.204 394.242H156.214C155.546 396.244 151.241 396.874 144.36 396.319C132.14 395.342 111.818 390.595 89.3982 383.103C66.8569 375.574 47.6715 367.095 37.3601 360.524C31.6534 356.886 28.6558 353.832 29.3136 351.848L40.4994 318.356C39.08 322.614 54.5521 331.826 77.6295 341.179C84.6608 344.028 92.3968 346.884 100.584 349.62C113.491 353.926 125.701 357.329 136.069 359.621C153.854 363.56 166.225 364.256 167.4 360.749L156.204 394.242Z" fill="#69BFFF"/>
<path d="M139.753 348.484L136.069 359.622C125.701 357.329 113.49 353.926 100.584 349.62C92.3968 346.885 84.6607 344.028 77.6294 341.18L83.6445 323.667C85.0964 325.422 86.6307 327.106 88.2423 328.715C103.084 343.557 122.458 350.335 139.753 348.484Z" fill="#C4D5FF"/>
<path d="M355.033 61.9613C353.557 64.5835 343.678 61.9802 330.96 56.0389C326.706 54.0388 322.526 51.8846 318.429 49.5806C314.318 47.2773 310.295 44.8193 306.369 42.2119C294.694 34.4479 287.353 27.3687 288.829 24.7464C290.333 22.0672 300.616 24.8312 313.739 31.054C313.045 31.9405 312.368 32.84 311.708 33.7521C307.573 32.0033 304.743 31.2606 304.339 31.9753C303.944 32.6711 305.928 34.6166 309.395 37.1261C312.413 39.3261 316.549 41.9573 321.24 44.5896C326.071 47.3067 330.602 49.5347 334.09 50.9631C337.859 52.5233 340.406 53.1442 340.792 52.4674C341.158 51.8186 339.466 50.0987 336.44 47.8238C337.145 46.9472 337.872 46.0885 338.621 45.2484C349.637 52.7209 356.462 59.4228 355.033 61.9613Z" fill="#749EFF"/>
<path d="M355.033 61.9613L345.276 79.304L343.594 82.3026C341.657 85.7434 325.282 80.1964 306.999 69.9229C288.716 59.6485 275.462 48.5285 277.389 45.0877L278.686 42.7759L288.829 24.7464C287.353 27.3687 294.694 34.4469 306.369 42.2119C310.295 44.8197 314.318 47.278 318.429 49.5816C322.527 51.8855 326.706 54.0397 330.96 56.04C343.678 61.9793 353.558 64.5846 355.033 61.9613Z" fill="#91AEEA"/>
<path d="M340.793 52.4674C340.408 53.1441 337.86 52.5233 334.091 50.9631C334.84 49.8912 335.623 48.8442 336.441 47.8237C339.467 50.0986 341.159 51.8185 340.793 52.4674ZM311.708 33.7521C310.913 34.8599 310.143 35.9848 309.396 37.126C305.928 34.6166 303.944 32.6711 304.339 31.9753C304.743 31.2606 307.573 32.0033 311.708 33.7521Z" fill="#3061C4"/>
<path d="M523.51 238.475C522.174 239.622 520.791 240.713 519.365 241.746C507.605 250.244 492.959 254.652 478.23 254.652C467.307 254.652 456.327 252.227 446.439 247.254C419.31 233.596 405.296 204.578 407.984 167.655C408.82 156.065 409.929 144.794 411.001 133.908C413.67 106.742 416.19 81.0898 413.022 62.5252C410.061 45.1266 402.955 36.2326 388.498 31.8156C372.273 26.8615 357.919 29.1075 345.822 38.4986C343.02 40.6696 340.623 43.0104 338.621 45.2484C337.872 46.0884 337.145 46.9472 336.44 47.8237C335.623 48.8447 334.839 49.8917 334.09 50.9631C330.602 49.5347 326.071 47.3067 321.24 44.5896C316.55 41.9573 312.414 39.3261 309.396 37.126C310.143 35.9848 310.913 34.8599 311.708 33.7521C312.368 32.84 313.045 31.9405 313.739 31.054C317.142 26.7018 321.672 21.7388 327.426 17.1041C341.149 6.05008 364.311 -5.0509 396.732 4.84625C421.285 12.3477 436.118 30.1606 440.827 57.7878C444.625 80.0846 441.927 107.57 439.07 136.664C438.017 147.379 436.926 158.461 436.109 169.704C434.266 195.065 442.435 213.659 459.119 222.063C473.154 229.131 491.418 227.552 503.441 218.453C504.015 218.02 504.578 217.569 505.124 217.099C511.027 212.023 519.929 212.69 525.005 218.594C530.08 224.497 529.413 233.399 523.51 238.475Z" fill="#EFF5FF"/>
<path d="M263.411 899.888C263.411 903.817 259.275 907.286 252.939 909.382C249.489 907.418 244.471 905.876 238.031 905.162C229.27 904.184 223.028 904.964 218.686 906.393C216.026 904.532 214.475 902.295 214.475 899.888C214.475 896.711 217.173 893.835 221.553 891.748C225.99 889.624 232.137 888.307 238.942 888.307C241.951 888.307 244.837 888.562 247.497 889.041C256.108 890.554 262.424 894.314 263.308 898.807C263.373 899.173 263.411 899.522 263.411 899.888Z" fill="white"/>
<path d="M338.15 888.73C332.708 900.631 325.864 914.157 317.254 929.234C279.306 995.674 233.754 1010.14 216.664 1001.8C207.688 997.413 204.031 987.909 203.73 975.295V975.134C203.73 974.496 203.712 973.857 203.73 973.227V973.029C203.796 962.671 205.949 950.413 209.192 937.272C209.624 937.366 210.084 937.44 210.554 937.488C219.08 938.419 227.671 937.723 236.217 937.459C239.939 937.347 243.887 937.431 247.412 936.059C248.653 935.58 249.828 934.875 250.796 933.973C256.84 943.682 272.284 944.848 280.894 938.117C285.003 934.912 287.578 930.062 289.045 925.061C290.511 920.051 290.971 914.815 291.611 909.645C292.56 901.984 293.914 894.285 296.951 887.188C300.626 878.588 306.679 871.791 314.989 868.106C316.678 870.116 318.53 871.984 320.525 873.69L338.16 888.73H338.15Z" fill="white"/>
<path d="M304.809 846.514C297.111 866.819 286.695 875.664 286.695 875.664C284.101 878.098 280.162 879.537 276.242 879.678H276.233C272.803 879.819 269.4 878.945 266.946 876.858C265.499 875.627 264.324 874.132 263.035 872.741C263.035 872.741 290.098 855.952 304.01 822.648V837.933C304.01 840.837 304.283 843.704 304.809 846.514Z" fill="#4548CB"/>
<path d="M314.98 868.107C306.669 871.792 300.616 878.589 296.941 887.189C293.904 894.286 292.551 901.985 291.602 909.646C290.963 914.816 290.502 920.052 289.035 925.062C287.569 930.063 284.994 934.913 280.886 938.118C272.276 944.849 256.831 943.683 250.787 933.974C251.487 933.346 252.064 932.594 252.488 931.755C254.18 928.399 253.259 926.04 251.003 924.385C260.554 920.277 260.675 913.772 252.939 909.383C259.275 907.287 263.411 903.818 263.411 899.889C263.411 899.522 263.374 899.174 263.308 898.817C262.424 894.314 256.108 890.554 247.497 889.041C244.837 888.562 241.951 888.308 238.943 888.308C232.137 888.308 225.99 889.624 221.553 891.748C221.44 886.08 220.942 879.359 223.865 874.433C224.147 873.935 224.476 873.465 224.843 873.005C232.983 862.834 254.697 863.783 263.035 872.741C264.323 874.133 265.498 875.627 266.945 876.859C269.399 878.946 272.802 879.819 276.232 879.679H276.242C280.162 879.538 284.1 878.099 286.695 875.665C286.695 875.665 297.11 866.82 304.809 846.515C306.28 854.47 309.784 861.908 314.98 868.107Z" fill="#EFF5FF"/>
<path d="M356.932 904.748C354.81 909.746 352.629 914.719 350.39 919.665C349.232 922.212 347.997 924.723 346.687 927.195C331.712 955.583 309.782 984.676 285.013 1004.99C271.797 1015.84 252.47 1026.38 234.28 1021.69C224.646 1019.19 215.678 1013.35 210.274 1004.9C204.765 996.266 203.853 985.4 203.73 975.295C204.032 987.909 207.688 997.413 216.665 1001.8C233.754 1010.14 279.307 995.674 317.255 929.235C325.865 914.157 332.709 900.631 338.151 888.73L356.932 904.748Z" fill="#C4D5FF"/>
<path d="M536.82 922.645C536.425 929.583 534.311 936.482 530.4 942.264C523.857 951.955 515.576 951.851 507.774 948.411C520.455 932.328 529.45 914.543 532.411 900.527C532.938 904.109 534.639 907.38 535.683 910.829C536.829 914.609 537.037 918.716 536.82 922.645Z" fill="#4548CB"/>
<path d="M547.856 935.984C540.647 942.583 535.072 951.053 532.684 960.585C529.038 975.126 534.959 991.623 526.678 1005.03C517.842 1019.3 495.094 1021.57 486.07 1007.47C486.183 1007.28 486.286 1007.09 486.38 1006.88C486.926 1005.76 487.141 1004.42 486.775 1003.21C486.258 1001.52 484.669 1000.36 483.006 999.767C481.747 999.312 480.455 998.951 479.142 998.689C485.496 996.323 489.35 993.231 490.159 990.081C491.221 985.908 488.814 983.529 484.998 982.233C485.262 982.007 485.496 981.819 485.666 981.688C488.214 979.77 490.817 977.382 492.377 974.552C493.289 972.888 493.76 970.896 493.251 969.063C492.81 967.502 491.682 966.196 490.357 965.275C486.512 962.596 481.455 962.201 476.943 961.769C471.782 961.27 466.528 961.43 461.395 962.173C456.262 962.916 451.252 964.278 446.665 966.318C446.336 965.284 445.923 963.978 445.481 962.492C444.682 959.813 443.789 956.552 443.037 953.281C441.26 945.46 443.742 940.844 459.722 938.005C475.711 935.167 484.585 931.97 494.887 940.14C498.713 943.175 503.16 946.371 507.774 948.412C515.577 951.851 523.858 951.955 530.4 942.264C534.311 936.482 536.426 929.583 536.821 922.646C537.036 918.716 536.83 914.609 535.683 910.83C534.64 907.381 532.939 904.109 532.412 900.528C532.835 898.516 533.135 896.589 533.305 894.756C534.235 893.12 535.825 891.973 538.071 892.001C542.066 892.048 545.196 895.743 547.998 898.215C548.016 898.234 548.035 898.243 548.054 898.262C548.204 898.384 548.355 898.516 548.496 898.657C554.183 904.146 559.739 925.118 547.856 935.984Z" fill="#EFF5FF"/>
<path d="M569.56 940.318C567.747 957.746 564.108 1002.87 527.252 1049.74C490.403 1096.6 464.008 1096.56 448.545 1085.58C444.099 1082.44 441.185 1077.78 439.427 1072.31C439.417 1072.28 439.417 1072.26 439.408 1072.23C434.473 1056.76 438.769 1034.91 443.958 1022.49C445.912 1022.31 447.849 1021.88 449.513 1021.54C455.482 1020.32 461.348 1018.62 467.232 1017.06C472.365 1015.7 477.92 1014.31 482.395 1011.33C483.842 1010.37 485.205 1009.01 486.07 1007.47C495.094 1021.57 517.842 1019.3 526.678 1005.03C534.959 991.624 529.037 975.126 532.685 960.585C535.072 951.053 540.647 942.583 547.857 935.985C559.738 925.119 554.182 904.146 548.495 898.657C552.96 902.473 557.172 906.628 561.326 910.783C566.111 915.568 568.922 919.243 569.805 925.992C570.284 929.639 570.2 934.198 569.56 940.318Z" fill="white"/>
<path d="M582.993 972.268C573.735 1021.43 553.552 1068.47 511.92 1098.5C497.556 1108.87 471.96 1112.38 457.202 1101.31C448.084 1094.48 441.993 1083.31 439.427 1072.31C441.185 1077.78 444.098 1082.44 448.544 1085.58C464.007 1096.56 490.403 1096.6 527.251 1049.74C564.109 1002.87 567.746 957.746 569.561 940.318C570.2 934.198 570.285 929.639 569.805 925.992C569.805 925.992 580.436 938.795 582.993 942.283C585.55 945.769 586.706 952.509 582.993 972.268Z" fill="#C4D5FF"/>
<path d="M486.379 1006.88C486.285 1007.08 486.181 1007.28 486.069 1007.47C485.204 1009.01 483.842 1010.37 482.393 1011.33C477.919 1014.31 472.364 1015.7 467.232 1017.06C461.347 1018.62 455.482 1020.32 449.513 1021.54C447.849 1021.88 445.912 1022.31 443.957 1022.49C440.958 1022.78 437.922 1022.51 435.797 1020.47C435.029 1019.72 434.43 1018.82 434.043 1017.82C433.655 1016.82 433.488 1015.75 433.551 1014.68C433.72 1012.11 435.243 1009.79 437.189 1008.1C439.934 1005.72 443.496 1004.14 446.871 1002.86C447.144 1002.76 447.416 1002.66 447.698 1002.56C457.07 999.138 468.979 996.54 479.132 998.689H479.141C480.457 998.958 481.754 999.308 483.004 999.767C484.668 1000.36 486.257 1001.52 486.774 1003.21C487.141 1004.42 486.924 1005.76 486.379 1006.88Z" fill="white"/>
<path d="M490.159 990.081C489.35 993.231 485.496 996.323 479.142 998.689H479.133C468.981 996.539 457.07 999.138 447.699 1002.56C438.844 1001.42 436.946 997.564 437.227 994.555C437.678 989.799 442.66 987.092 446.994 985.353C447.961 984.971 448.936 984.608 449.917 984.263C453.828 982.862 457.719 982.054 461.809 981.565L462.514 981.48C466.311 981.058 478.014 979.845 484.998 982.233C488.814 983.529 491.221 985.908 490.159 990.081Z" fill="white"/>
<path d="M492.377 974.552C490.817 977.382 488.212 979.77 485.665 981.688C485.496 981.818 485.261 982.007 484.998 982.233C478.014 979.845 466.311 981.058 462.513 981.48L461.808 981.565C457.719 982.054 453.827 982.862 449.917 984.263C449.024 984.582 448.028 984.94 446.994 985.353C440.507 983.614 434.811 978.754 439.539 971.535C441.052 969.223 443.525 967.728 446.044 966.581C446.251 966.487 446.458 966.393 446.664 966.318C451.252 964.278 456.262 962.915 461.395 962.173C466.526 961.43 471.781 961.27 476.942 961.768C481.454 962.201 486.511 962.596 490.355 965.274C491.681 966.195 492.809 967.502 493.251 969.063C493.758 970.896 493.288 972.888 492.377 974.552ZM252.489 931.755C252.065 932.593 251.488 933.345 250.788 933.973C249.819 934.875 248.644 935.58 247.404 936.06C243.879 937.431 239.93 937.347 236.208 937.46C227.663 937.723 219.072 938.419 210.546 937.488C210.088 937.442 209.633 937.37 209.184 937.272C206.109 936.642 204.051 934.988 204.417 931.302C205.038 924.977 212.04 922.955 217.371 921.865C217.69 921.809 217.991 921.744 218.292 921.687C222.211 920.935 226.188 920.597 230.174 920.55H230.24C234.309 920.502 245.984 920.681 251.004 924.385C253.26 926.039 254.181 928.399 252.489 931.755Z" fill="white"/>
<path d="M251.004 924.385C245.984 920.682 234.309 920.503 230.238 920.55H230.174C226.188 920.597 222.211 920.935 218.292 921.687C217.99 921.744 217.69 921.81 217.371 921.866C209.192 918.717 209.897 915.483 209.897 913.538C209.897 912.231 212.097 908.565 218.686 906.393C223.029 904.965 229.271 904.184 238.031 905.162C244.471 905.876 249.49 907.418 252.94 909.383C260.676 913.772 260.554 920.277 251.004 924.385Z" fill="white"/>
<path d="M537.168 241.21C536.942 241.314 536.708 241.408 536.482 241.492C535.974 241.699 535.448 241.887 534.921 242.047C532.554 242.804 530.084 243.188 527.599 243.184C514.25 243.184 503.432 232.365 503.432 219.017C503.427 215.359 504.255 211.747 505.855 208.457C507.454 205.167 509.782 202.285 512.662 200.029C516.914 196.667 522.178 194.841 527.599 194.85C528.379 194.85 529.159 194.887 529.921 194.962C526.621 198.206 521.762 204.437 521.573 213.058C521.573 213.058 547.01 211.6 551.757 188.307C551.757 188.307 568.451 228.671 537.168 241.21C536.942 241.314 536.708 241.408 536.482 241.492C535.964 241.684 535.444 241.869 534.921 242.047" fill="#FFE927"/>
<path d="M336.882 391.939C329.436 400.23 325.066 406.735 325.103 409.95C310.487 414.18 287.907 416.887 262.565 416.887C218.507 416.887 182.797 408.7 182.797 398.595C182.797 388.489 218.507 380.312 262.565 380.312C296.367 380.312 325.273 385.133 336.882 391.939ZM411.611 351.528L402.466 341.63C403.435 339.479 404.285 337.276 405.013 335.032C417.515 327.211 426.538 323.536 428.626 326.054C430.947 328.865 424.039 338.763 411.611 351.528Z" fill="black"/>
<path d="M361.933 393.782C354.629 398.989 347.945 403.286 342.343 406.406C333.431 411.379 327.237 413.38 325.554 411.35C325.263 410.993 325.112 410.524 325.103 409.95C325.065 406.735 329.436 400.23 336.881 391.939C339.551 388.96 342.616 385.754 346.027 382.389C347.718 382.271 349.402 382.08 351.075 381.815L361.933 393.782ZM83.6446 323.657L77.6294 341.179C54.551 331.826 39.0789 322.614 40.4984 318.356C41.8899 314.191 59.0549 315.949 82.3189 322.022C82.7505 322.576 83.1924 323.121 83.6446 323.657ZM167.4 360.75C166.225 364.256 153.854 363.56 136.069 359.622L139.754 348.484C143.009 348.139 146.221 347.468 149.342 346.481C161.345 352.534 168.377 357.818 167.4 360.75ZM304.809 846.515C297.11 866.819 286.694 875.665 286.694 875.665C284.1 878.099 280.162 879.537 276.242 879.679H276.232C272.801 879.819 269.399 878.945 266.945 876.859C265.498 875.627 264.323 874.133 263.035 872.741C263.035 872.741 290.097 855.952 304.01 822.648V837.933C304.01 840.838 304.283 843.704 304.809 846.515ZM536.819 922.645C536.425 929.583 534.31 936.482 530.4 942.264C523.858 951.955 515.576 951.851 507.774 948.411C520.455 932.328 529.451 914.543 532.411 900.527C532.937 904.109 534.639 907.38 535.682 910.829C536.829 914.609 537.036 918.716 536.819 922.645ZM340.792 52.4674C340.406 53.1441 337.859 52.5233 334.09 50.9631C334.839 49.8912 335.622 48.8442 336.44 47.8237C339.466 50.0986 341.158 51.8185 340.792 52.4674ZM311.708 33.7521C310.913 34.8599 310.142 35.9848 309.396 37.126C305.928 34.6166 303.944 32.6711 304.339 31.9753C304.743 31.2606 307.573 32.0033 311.708 33.7521ZM119.487 609.559V626.132C110.191 623.621 105.002 620.811 105.002 617.85C105.002 614.889 110.191 612.078 119.487 609.559Z" fill="black"/>
<path d="M385.81 216.281C388.187 216.47 390.556 217.174 392.756 218.434C400.877 223.059 403.706 233.399 399.082 241.511L397.428 244.415M377.969 278.321L377.96 278.331M342.465 273.884C333.056 277.127 323.928 282.73 316.078 290.579C308.229 298.428 302.392 307.941 299.178 317.566C292.861 336.413 295.925 356.332 309.066 369.474C328.919 389.326 364.244 386.196 387.97 362.47C411.686 338.745 414.826 303.42 394.973 283.576C393.694 282.3 392.338 281.104 390.912 279.994M378.251 273.179H378.242" stroke="black" stroke-width="0.704729" stroke-miterlimit="10"/>
<path d="M365.11 323.977L363.804 323.178C359.471 320.527 358.032 314.915 360.543 310.507L375.893 283.576C380.592 275.332 377.838 264.494 369.509 259.953C361.435 255.545 351.292 258.403 346.715 266.431L333.978 288.774M360.729 310.187L360.72 310.178" stroke="black" stroke-width="0.704729" stroke-miterlimit="10"/>
<path d="M360.213 257.933L366.483 246.945C367.798 244.627 369.593 242.616 371.747 241.047C373.901 239.478 376.366 238.387 378.975 237.845C383.464 236.896 388.145 237.633 392.126 239.913C394.159 241.07 395.958 242.597 397.428 244.416C402.156 250.254 403.096 258.639 399.148 265.556L390.914 279.995L384.991 290.382C382.482 294.79 383.92 300.402 388.243 303.054L389.55 303.852" stroke="black" stroke-width="0.704729" stroke-miterlimit="10"/>
<path d="M378.975 237.845C381.815 230.847 384.1 223.637 385.809 216.281C388.3 205.514 389.556 194.498 389.551 183.447C389.551 142.548 372.573 105.606 345.276 79.305M278.685 42.7758C267.625 40.1321 256.292 38.8007 244.92 38.809C165.039 38.809 100.283 103.565 100.283 183.447C100.283 183.87 100.283 184.303 100.292 184.726C100.348 191.879 100.931 198.91 101.993 205.772M179.3 312.378C198.992 322.427 221.299 328.085 244.921 328.085C264.107 328.085 282.427 324.353 299.178 317.566M228.988 168.097V168.116M261.174 220.041C289.322 220.041 312.141 197.222 312.141 169.074C312.141 140.926 289.322 118.108 261.174 118.108C233.026 118.108 210.207 140.926 210.207 169.074C210.207 197.222 233.026 220.041 261.174 220.041Z" stroke="black" stroke-width="0.704729" stroke-miterlimit="10"/>
<path d="M213.347 186.746C204.621 193.145 194.078 196.586 183.257 196.57C155.105 196.57 132.281 173.756 132.281 145.602C132.281 117.45 155.105 94.6264 183.257 94.6264C205.198 94.6264 223.894 108.491 231.076 127.93M198.89 264.033C211.038 264.033 220.885 254.186 220.885 242.038C220.885 229.889 211.038 220.041 198.89 220.041C186.742 220.041 176.894 229.889 176.894 242.038C176.894 254.186 186.742 264.033 198.89 264.033ZM187.341 68.1002L181.648 82.0221L223.82 99.266L229.513 85.3451L187.341 68.1002ZM269.678 91.6268L265.361 106.035L310.357 119.516L314.673 105.109L269.678 91.6268ZM256.87 169.535L247.084 157.879H263.684C266.523 149.729 265.508 141.965 260.488 138.487C253.72 133.806 242.234 138.694 234.826 149.401C230.502 155.67 228.529 162.542 228.989 168.097V168.116C229.318 172.055 230.869 175.335 233.679 177.271C239.733 181.464 249.575 177.986 256.87 169.535Z" stroke="black" stroke-width="0.704729" stroke-miterlimit="10"/>
<path d="M144.36 396.32L129.742 443.433M129.742 443.433L123.492 463.568M129.742 443.433L182.797 458.914M37.3589 360.525L2.73938 472.094C-5.364 498.189 9.50718 525.853 35.7329 533.504L119.488 557.944M357.835 532.564V547.641C357.835 569.242 366.595 588.814 380.752 602.97C389.128 611.345 399.392 617.832 410.85 621.733C418.976 624.49 427.5 625.894 436.081 625.887C447.125 625.887 457.635 623.593 467.157 619.467C494.906 607.444 514.317 579.808 514.317 547.641V462.355C514.317 451.147 510.309 440.308 503.018 431.795L446.026 365.215M177.495 149.278L167.71 137.613H184.31C187.149 129.462 186.134 121.698 181.114 118.221C174.346 113.539 162.86 118.427 155.452 129.143C148.044 139.85 147.537 152.323 154.305 157.005C160.359 161.188 170.181 157.729 177.495 149.278Z" stroke="black" stroke-width="0.704729" stroke-miterlimit="10"/>
<path d="M358.766 436.74L375.723 456.556L390.218 473.485C393.126 476.882 395.535 480.677 397.371 484.755C400.105 490.821 401.518 497.399 401.517 504.053V532.695M276.243 879.679H276.234M263.308 898.816V898.807M137.254 722.322L129.677 784.071C127.44 802.288 136.013 820.129 151.617 829.782L223.866 874.433M304.009 791.356L285.858 780.141M507.775 948.412C520.455 932.328 529.451 914.543 532.413 900.528C532.835 898.517 533.136 896.589 533.305 894.756C533.992 887.406 532.591 881.558 528.652 878.24L452.117 812.967C446.943 808.556 442.787 803.074 439.938 796.901C437.088 790.727 435.612 784.009 435.611 777.209V721.231M445.481 962.493C439.014 966.337 432.377 968.161 427.001 964.514L356.933 904.748L338.152 888.731L320.517 873.69C312.315 866.705 306.768 857.109 304.81 846.515C304.279 843.685 304.011 840.812 304.011 837.933V745.964C304.012 740.526 306.071 735.291 309.773 731.309L317.256 723.263M188.86 454.299L182.797 458.914L138.053 492.924C132.284 497.307 127.607 502.964 124.386 509.454C121.166 515.944 119.489 523.091 119.488 530.336V626.132M158.873 632.693V543.496C158.874 536.251 160.551 529.104 163.771 522.614C166.992 516.124 171.67 510.466 177.439 506.083L188.86 497.398" stroke="black" stroke-width="0.704729" stroke-miterlimit="10"/>
<path d="M375.722 456.556H352.533C347.919 456.555 343.375 457.687 339.301 459.852C335.227 462.017 331.746 465.149 329.164 468.972L280.66 540.761L266.832 561.225C261.579 568.993 258.773 578.157 258.777 587.535V637.403M298.163 636.782V596.851C298.162 587.523 300.937 578.407 306.134 570.662L340.472 519.488L355.399 497.248C357.978 493.405 361.463 490.255 365.546 488.076C369.63 485.898 374.187 484.757 378.815 484.756H397.371M467.157 619.467C468.185 625.823 468.701 632.251 468.698 638.69C468.698 679.758 447.98 715.996 416.434 737.503M105.002 617.85V664.324C105.001 673.754 107.028 683.074 110.944 691.652C114.861 700.23 120.576 707.865 127.703 714.04L137.254 722.321L158.874 741.066" stroke="black" stroke-width="0.704729" stroke-miterlimit="10"/>
<path d="M410.85 621.732C399.194 629.074 355.024 634.92 298.163 636.782C285.793 637.186 272.82 637.403 259.444 637.403H258.777C220.622 637.384 185.738 635.607 158.874 632.693C142.33 630.888 128.831 628.66 119.488 626.132C110.191 623.621 105.002 620.811 105.002 617.85C105.002 614.889 110.191 612.078 119.488 609.559M105.312 670.603H105.302V670.584C105.11 670.205 105.007 669.787 105.002 669.362C105.002 669.08 105.049 668.826 105.143 668.544V668.525M199.529 759.18C224.185 772.575 252.441 780.179 282.465 780.179C283.602 780.179 284.73 780.179 285.858 780.142C291.997 780.029 298.05 779.596 304.01 778.854M78.7863 210.66L77.1313 207.755C72.5066 199.643 75.3355 189.303 83.4579 184.678C88.8621 181.596 95.2546 181.821 100.292 184.725M95.6778 240.289V240.28M85.2995 246.248C83.8719 247.352 82.5156 248.545 81.2389 249.82C61.3857 269.674 64.525 304.989 88.2412 328.715C111.967 352.44 147.293 355.571 167.145 335.728C173.603 329.269 177.626 321.176 179.3 312.378C182.778 294.123 176.142 272.832 160.133 256.824C152.284 248.974 143.156 243.381 133.747 240.129M298.163 656.785C285.792 657.189 272.82 657.405 259.443 657.405H258.777V688.915H259.443C272.82 688.915 285.792 688.698 298.163 688.294V656.785ZM119.488 646.135V677.644C128.831 680.172 142.33 682.4 158.874 684.205V652.696C142.33 650.891 128.831 648.663 119.488 646.135Z" stroke="black" stroke-width="0.704729" stroke-miterlimit="10"/>
<path d="M111.103 290.222L112.41 289.423C116.743 286.772 118.182 281.16 115.671 276.752L100.322 249.82C95.6213 241.577 98.3753 230.739 106.704 226.198C115.032 221.658 124.921 224.648 129.499 232.675L143.656 257.51" stroke="black" stroke-width="0.704729" stroke-miterlimit="10"/>
<path d="M86.6624 270.106L87.97 269.306C92.3022 266.656 93.7416 261.044 91.2312 256.635L77.0747 231.82C73.1268 224.891 74.0671 216.517 78.7956 210.669C80.266 208.853 82.0639 207.329 84.096 206.176C89.8307 202.914 96.5426 202.99 102.004 205.781C105.247 207.45 107.935 210.027 109.74 213.198L116.009 224.187M325.103 409.95C310.487 414.18 287.907 416.887 262.565 416.887C218.508 416.887 182.797 408.7 182.797 398.595C182.797 388.489 218.508 380.312 262.565 380.312C296.367 380.312 325.273 385.133 336.882 391.939" stroke="black" stroke-width="0.704729" stroke-miterlimit="10"/>
<path d="M182.797 398.594V432.885C182.797 435.367 184.949 437.737 188.86 439.898M188.86 439.898C200.854 446.516 229.336 451.178 262.565 451.178C295.794 451.178 324.276 446.525 336.271 439.898M188.86 439.898V509.505M336.271 439.898C340.181 437.746 342.343 435.377 342.343 432.885V431.636M336.271 439.898V461.715M405.013 335.032C417.515 327.211 426.539 323.536 428.625 326.054C432.358 330.567 412.317 353.315 383.853 376.871C368.193 389.834 353.237 400.333 342.343 406.406C333.432 411.378 327.237 413.381 325.554 411.35M325.554 411.35C325.263 410.993 325.113 410.523 325.103 409.95C325.066 406.734 329.437 400.23 336.882 391.939C339.551 388.96 342.615 385.754 346.028 382.388M325.554 411.35L348.068 438.554M348.059 438.545C351.8 443.057 377.904 427.622 406.358 404.075C434.82 380.519 454.871 357.761 451.13 353.249L428.626 326.055M82.3199 322.022C59.0549 315.949 41.8908 314.191 40.4993 318.356M40.4993 318.356C39.0799 322.614 54.552 331.826 77.6294 341.179C84.6607 344.028 92.3967 346.884 100.584 349.62C113.491 353.926 125.701 357.329 136.069 359.621C153.854 363.56 166.225 364.256 167.399 360.749C168.377 357.817 161.345 352.534 149.342 346.481M40.4993 318.356L29.3125 351.848" stroke="black" stroke-width="0.704729" stroke-miterlimit="10"/>
<path d="M167.4 360.75L156.204 394.242H156.214C155.546 396.244 151.241 396.874 144.36 396.32C132.14 395.342 111.818 390.596 89.3982 383.103C66.8569 375.574 47.6715 367.095 37.3601 360.525C31.6534 356.886 28.6558 353.832 29.3136 351.848M351.075 381.815L361.933 393.782M402.466 341.631L411.612 351.529M139.754 348.484L136.069 359.622M83.6446 323.657L77.6295 341.179M338.621 45.2484C349.637 52.7209 356.462 59.4228 355.033 61.9613C353.557 64.5835 343.678 61.9802 330.96 56.0389C326.706 54.0388 322.526 51.8846 318.429 49.5806C314.318 47.2773 310.295 44.8193 306.369 42.2119C294.694 34.4479 287.353 27.3687 288.829 24.7464C290.333 22.0672 300.616 24.8312 313.739 31.054" stroke="black" stroke-width="0.704729" stroke-miterlimit="10"/>
<path d="M311.708 33.7522C307.573 32.0033 304.743 31.2607 304.338 31.9754C303.944 32.6711 305.927 34.6166 309.396 37.1261C312.414 39.3261 316.549 41.9574 321.24 44.5896C326.071 47.3067 330.602 49.5347 334.09 50.9631C337.859 52.5233 340.406 53.1442 340.792 52.4674C341.159 51.8186 339.467 50.0987 336.439 47.8238M343.584 82.3026C341.657 85.7434 325.273 80.1974 306.99 69.9239C288.716 59.6485 275.452 48.5285 277.389 45.0887L288.829 24.7464M355.033 61.9613L343.594 82.3026" stroke="black" stroke-width="0.704729" stroke-miterlimit="10"/>
<path d="M334.091 50.9631C334.839 49.8912 335.623 48.8442 336.441 47.8238C337.145 46.9469 337.872 46.0882 338.621 45.2484C340.623 43.0104 343.021 40.6697 345.822 38.4986C357.92 29.1085 372.273 26.8616 388.498 31.8156C402.955 36.2337 410.061 45.1256 413.022 62.5252C416.19 81.0898 413.671 106.742 411.001 133.908C409.93 144.794 408.82 156.065 407.984 167.655C405.295 204.578 419.311 233.596 446.439 247.254C456.328 252.227 467.308 254.652 478.23 254.652C492.96 254.652 507.605 250.244 519.365 241.746" stroke="black" stroke-width="0.704729" stroke-miterlimit="10"/>
<path d="M503.441 218.453C491.418 227.552 473.154 229.131 459.119 222.063C442.435 213.659 434.266 195.065 436.109 169.704C436.927 158.461 438.017 147.379 439.07 136.664C441.927 107.57 444.625 80.0846 440.827 57.7878C436.118 30.1606 421.285 12.3477 396.732 4.84626C364.311 -5.05189 341.149 6.05009 327.426 17.1042C321.672 21.7388 317.142 26.7018 313.739 31.054C313.045 31.9405 312.368 32.84 311.708 33.7521C310.913 34.8599 310.143 35.9848 309.396 37.126" stroke="black" stroke-width="0.704729" stroke-miterlimit="10"/>
<path d="M536.482 241.492C536.707 241.408 536.942 241.314 537.167 241.21C568.451 228.671 551.756 188.307 551.756 188.307C547.01 211.6 521.572 213.058 521.572 213.058C521.761 204.437 526.62 198.206 529.92 194.962C529.149 194.887 528.374 194.849 527.599 194.85C522.178 194.841 516.913 196.667 512.661 200.029C509.781 202.285 507.453 205.167 505.854 208.457C504.255 211.747 503.426 215.359 503.431 219.017C503.431 232.365 514.25 243.184 527.599 243.184C530.083 243.188 532.554 242.804 534.92 242.047M536.482 241.492C535.973 241.699 535.447 241.887 534.92 242.047M536.482 241.492C535.964 241.684 535.443 241.869 534.92 242.047M252.939 909.382C259.274 907.286 263.411 903.817 263.411 899.888C263.41 899.525 263.375 899.163 263.307 898.807C262.424 894.314 256.107 890.554 247.497 889.041C244.836 888.561 241.951 888.307 238.942 888.307C232.136 888.307 225.989 889.624 221.552 891.748C217.172 893.835 214.474 896.711 214.474 899.888C214.474 902.295 216.025 904.532 218.686 906.393M209.183 937.272C205.94 950.413 203.786 962.671 203.721 973.029V973.227C203.712 973.876 203.712 974.514 203.721 975.135V975.22C204.003 987.872 207.66 997.404 216.655 1001.8C233.744 1010.14 279.297 995.674 317.245 929.235C325.855 914.157 332.698 900.631 338.141 888.73" stroke="black" stroke-width="0.704729" stroke-miterlimit="10"/>
<path d="M221.553 891.748C221.44 886.08 220.942 879.359 223.864 874.433C224.147 873.935 224.475 873.465 224.843 873.005C232.983 862.834 254.697 863.783 263.035 872.741C264.322 874.133 265.497 875.627 266.945 876.859C269.398 878.946 272.801 879.819 276.232 879.679H276.242C280.162 879.538 284.1 878.099 286.694 875.665C286.694 875.665 297.109 866.82 304.808 846.515M356.931 904.748C354.809 909.746 352.629 914.719 350.389 919.665C349.231 922.212 347.996 924.723 346.686 927.195C331.712 955.584 309.781 984.676 285.012 1004.99C271.796 1015.84 252.469 1026.38 234.281 1021.69C224.645 1019.19 215.677 1013.35 210.273 1004.9C204.736 996.219 203.842 985.287 203.73 975.135C203.73 974.497 203.712 973.857 203.73 973.227C203.721 972.852 203.721 972.484 203.721 972.118M533.304 894.756C534.235 893.12 535.824 891.973 538.07 892.001C542.075 892.048 545.205 895.762 548.016 898.234C548.025 898.243 548.044 898.253 548.053 898.262C548.072 898.281 548.1 898.3 548.119 898.319C548.25 898.422 548.372 898.535 548.495 898.657C552.96 902.473 557.171 906.628 561.326 910.782C566.11 915.568 568.921 919.243 569.805 925.992C570.284 929.639 570.2 934.198 569.56 940.318C567.746 957.746 564.108 1002.87 527.251 1049.74C490.403 1096.6 464.007 1096.56 448.544 1085.58C444.098 1082.44 441.184 1077.78 439.427 1072.31C439.427 1072.28 439.427 1072.26 439.408 1072.23C434.473 1056.76 438.769 1034.91 443.957 1022.49" stroke="black" stroke-width="0.704729" stroke-miterlimit="10"/>
<path d="M446.665 966.318C446.335 965.284 445.922 963.978 445.48 962.492C444.681 959.813 443.788 956.551 443.036 953.28C441.259 945.459 443.741 940.844 459.721 938.005C475.71 935.167 484.584 931.97 494.887 940.139C505.189 948.308 519.984 957.689 530.4 942.264C534.311 936.482 536.425 929.583 536.82 922.645C537.036 918.716 536.829 914.609 535.682 910.829C534.639 907.38 532.938 904.109 532.411 900.527M569.805 925.992C569.805 925.992 580.426 938.786 582.984 942.273C585.54 945.76 586.706 952.5 582.984 972.259C573.735 1021.42 553.552 1068.46 511.919 1098.49C497.547 1108.86 471.96 1112.37 457.193 1101.3C448.056 1094.45 441.955 1083.25 439.399 1072.22M467.232 1017.06C461.347 1018.62 455.482 1020.33 449.513 1021.54C445.273 1022.4 439.285 1023.81 435.797 1020.47C435.029 1019.72 434.43 1018.82 434.043 1017.82C433.655 1016.82 433.488 1015.75 433.551 1014.68C433.72 1012.11 435.252 1009.79 437.189 1008.1C439.934 1005.72 443.496 1004.14 446.871 1002.86C457.559 998.839 471.828 995.778 483.004 999.767C484.668 1000.36 486.257 1001.52 486.774 1003.21C487.141 1004.42 486.924 1005.76 486.379 1006.88C485.543 1008.66 484.02 1010.25 482.393 1011.33C477.919 1014.31 472.364 1015.7 467.232 1017.05V1017.06Z" stroke="black" stroke-width="0.704729" stroke-miterlimit="10"/>
<path d="M479.133 998.689C485.496 996.323 489.35 993.231 490.159 990.081C491.221 985.908 488.814 983.529 484.998 982.233C478.014 979.845 466.311 981.058 462.514 981.48L461.809 981.565C457.719 982.054 453.828 982.862 449.917 984.263C449.024 984.582 448.028 984.94 446.994 985.353C442.66 987.092 437.678 989.799 437.227 994.555C436.946 997.564 438.844 1001.42 447.699 1002.56" stroke="black" stroke-width="0.704729" stroke-miterlimit="10"/>
<path d="M446.994 985.353C440.507 983.614 434.811 978.754 439.539 971.535C441.052 969.223 443.525 967.728 446.044 966.581C446.251 966.487 446.458 966.393 446.664 966.318C451.252 964.278 456.262 962.915 461.395 962.173C466.526 961.43 471.781 961.27 476.942 961.768C481.454 962.201 486.511 962.596 490.355 965.274C491.681 966.196 492.809 967.502 493.251 969.063C493.758 970.896 493.288 972.888 492.377 974.552C490.817 977.382 488.212 979.77 485.665 981.688C485.496 981.818 485.261 982.007 484.998 982.233M547.856 898.102C547.922 898.149 547.988 898.205 548.053 898.262C548.204 898.384 548.354 898.516 548.496 898.656C554.182 904.146 559.737 925.118 547.856 935.984C540.647 942.583 535.072 951.052 532.684 960.584C529.038 975.125 534.959 991.623 526.678 1005.03C517.842 1019.3 495.094 1021.57 486.069 1007.47M230.24 920.55H230.174C226.188 920.597 222.211 920.935 218.292 921.687C212.877 922.73 205.075 924.6 204.417 931.303C204.004 935.514 206.749 937.075 210.555 937.488C219.082 938.419 227.673 937.714 236.218 937.46C239.94 937.348 243.888 937.432 247.413 936.06C249.528 935.232 251.473 933.785 252.498 931.764C257.96 920.897 236.133 920.493 230.249 920.559L230.24 920.55Z" stroke="black" stroke-width="0.704729" stroke-miterlimit="10"/>
<path d="M217.371 921.866C209.192 918.717 209.897 915.483 209.897 913.538C209.897 912.231 212.097 908.564 218.686 906.393C223.029 904.965 229.271 904.184 238.031 905.162C244.471 905.876 249.49 907.418 252.94 909.383C260.676 913.772 260.554 920.277 251.004 924.385M263.035 872.741C263.035 872.741 290.098 855.952 304.01 822.648M250.787 933.973C256.831 943.682 272.276 944.848 280.886 938.117C284.994 934.912 287.569 930.062 289.036 925.061C290.503 920.051 290.963 914.815 291.602 909.645C292.552 901.984 293.906 894.285 296.941 887.188C300.616 878.588 306.671 871.791 314.98 868.106" stroke="black" stroke-width="0.704729" stroke-miterlimit="10"/>
</g>
</g>
<defs>
<clipPath id="clip0_3_19610">
<rect width="586" height="1109" fill="white"/>
</clipPath>
<clipPath id="clip1_3_19610">
<rect width="586" height="1109" fill="white"/>
</clipPath>
</defs>
</svg>
