<svg width="214" height="153" viewBox="0 0 214 153" fill="none" xmlns="http://www.w3.org/2000/svg">
<g clip-path="url(#clip0_28_2085)">
<g clip-path="url(#clip1_28_2085)">
<g clip-path="url(#clip2_28_2085)">
<path d="M199.188 106.598C199.188 81.0653 202.383 60.3633 206.322 60.3633H153.224V7.26587C153.224 11.2045 132.522 14.3992 106.99 14.3992C81.4576 14.3992 60.7557 11.2045 60.7557 7.26587V60.3633H7.6582C11.5968 60.3633 14.7915 81.0653 14.7915 106.598C14.7915 132.13 11.5968 152.832 7.6582 152.832H206.322C202.383 152.832 199.188 132.13 199.188 106.598Z" fill="white"/>
<path d="M153.224 7.26074V36.808C151.925 37.3328 150.411 37.6589 148.572 37.6589C138.285 37.6589 138.285 27.5704 127.998 27.5704C117.71 27.5704 117.71 37.6589 107.428 37.6589C97.1459 37.6589 97.1357 27.5704 86.8535 27.5704C76.5713 27.5704 76.5713 37.6589 66.2789 37.6589C64.0115 37.6589 62.2435 37.1698 60.7608 36.4055V7.26074C60.7608 11.1994 81.4576 14.3941 106.995 14.3941C132.532 14.3941 153.229 11.1994 153.229 7.26074H153.224ZM206.322 152.832H176.774C176.249 151.532 175.923 150.019 175.923 148.18C175.923 137.892 186.012 137.892 186.012 127.605C186.012 117.318 175.923 117.318 175.923 107.036C175.923 96.7535 186.012 96.7433 186.012 86.4611C186.012 76.1789 175.923 76.1789 175.923 65.8866C175.923 63.6192 176.412 61.8511 177.177 60.3684H206.322C202.383 60.3684 199.188 81.0653 199.188 106.603C199.188 132.14 202.383 152.837 206.322 152.837V152.832ZM7.6582 152.832H37.2055C37.7303 151.532 38.0564 150.019 38.0564 148.18C38.0564 137.892 27.9678 137.892 27.9678 127.605C27.9678 117.318 38.0564 117.318 38.0564 107.036C38.0564 96.7433 27.9678 96.7433 27.9678 86.4611C27.9678 76.1789 38.0564 76.1789 38.0564 65.8866C38.0564 63.6192 37.5673 61.8511 36.803 60.3684H7.6582C11.5968 60.3684 14.7915 81.0653 14.7915 106.603C14.7915 132.14 11.5968 152.837 7.6582 152.837V152.832Z" fill="#CBFB45"/>
<path style="mix-blend-mode:multiply" d="M84.8867 84.4892H13.9304C12.7127 70.1104 10.3638 60.3582 7.6582 60.3582H60.7557L84.8867 84.4892Z" fill="url(#paint0_linear_28_2085)"/>
<path style="mix-blend-mode:multiply" d="M206.321 60.3633C203.616 60.3633 201.267 70.1156 200.049 84.4943H129.093L153.224 60.3633H206.321Z" fill="url(#paint1_linear_28_2085)"/>
<path d="M153.224 7.26074V36.808C151.925 37.3328 150.411 37.6589 148.572 37.6589C138.285 37.6589 138.285 27.5704 127.998 27.5704C117.71 27.5704 117.71 37.6589 107.428 37.6589C97.1458 37.6589 97.1357 27.5704 86.8535 27.5704C76.5713 27.5704 76.5713 37.6589 66.2789 37.6589C64.0115 37.6589 62.2435 37.1698 60.7607 36.4055V7.26074C60.7607 11.1994 81.4576 14.3941 106.995 14.3941C132.532 14.3941 153.229 11.1994 153.229 7.26074H153.224Z" fill="url(#paint2_linear_28_2085)"/>
<path d="M206.322 152.832H176.775C176.25 151.533 175.924 150.019 175.924 148.18C175.924 137.893 186.012 137.893 186.012 127.605C186.012 117.318 175.924 117.318 175.924 107.036C175.924 96.7537 186.012 96.7436 186.012 86.4614C186.012 76.1792 175.924 76.1792 175.924 65.8868C175.924 63.6194 176.413 61.8514 177.177 60.3687H206.322C202.383 60.3687 199.189 81.0655 199.189 106.603C199.189 132.14 202.383 152.837 206.322 152.837V152.832Z" fill="url(#paint3_linear_28_2085)"/>
<path d="M7.6582 152.832H37.2055C37.7303 151.532 38.0564 150.019 38.0564 148.18C38.0564 137.892 27.9678 137.892 27.9678 127.605C27.9678 117.318 38.0564 117.318 38.0564 107.036C38.0564 96.7433 27.9678 96.7433 27.9678 86.4611C27.9678 76.1789 38.0564 76.1789 38.0564 65.8865C38.0564 63.6192 37.5673 61.8511 36.803 60.3684H7.6582C11.5968 60.3684 14.7915 81.0653 14.7915 106.603C14.7915 132.14 11.5968 152.837 7.6582 152.837V152.832Z" fill="url(#paint4_linear_28_2085)"/>
<path d="M199.188 106.598C199.188 81.0653 202.383 60.3633 206.322 60.3633H153.224V7.26587C153.224 11.2045 132.522 14.3992 106.99 14.3992C81.4576 14.3992 60.7557 11.2045 60.7557 7.26587V60.3633H7.6582C11.5968 60.3633 14.7915 81.0653 14.7915 106.598C14.7915 132.13 11.5968 152.832 7.6582 152.832H206.322C202.383 152.832 199.188 132.13 199.188 106.598Z" stroke="black" stroke-width="0.509524" stroke-linecap="round" stroke-linejoin="round"/>
<path d="M153.224 36.8131C151.925 37.3379 150.411 37.664 148.572 37.664C138.285 37.664 138.285 27.5754 127.997 27.5754C117.71 27.5754 117.71 37.664 107.428 37.664C97.1458 37.664 97.1356 27.5754 86.8534 27.5754C76.5713 27.5754 76.5713 37.664 66.2789 37.664C64.0115 37.664 62.2434 37.1749 60.7607 36.4106M176.774 152.832C176.249 151.532 175.923 150.019 175.923 148.18C175.923 137.892 186.012 137.892 186.012 127.605C186.012 117.318 175.923 117.318 175.923 107.036C175.923 96.7535 186.012 96.7433 186.012 86.4611C186.012 76.1789 175.923 76.1789 175.923 65.8865C175.923 63.6192 176.412 61.8511 177.177 60.3684M37.2054 152.832C37.7302 151.532 38.0563 150.019 38.0563 148.18C38.0563 137.892 27.9678 137.892 27.9678 127.605C27.9678 117.318 38.0563 117.318 38.0563 107.036C38.0563 96.7433 27.9678 96.7433 27.9678 86.4611C27.9678 76.1789 38.0563 76.1789 38.0563 65.8865C38.0563 63.6192 37.5672 61.8511 36.8029 60.3684" stroke="black" stroke-width="0.509524" stroke-linecap="round" stroke-linejoin="round"/>
</g>
</g>
</g>
<defs>
<linearGradient id="paint0_linear_28_2085" x1="46.2699" y1="60.3632" x2="46.2699" y2="84.4892" gradientUnits="userSpaceOnUse">
<stop stop-color="#FFCBFC"/>
<stop offset="1" stop-color="white"/>
</linearGradient>
<linearGradient id="paint1_linear_28_2085" x1="167.71" y1="-0.142674" x2="167.71" y2="-0.142674" gradientUnits="userSpaceOnUse">
<stop stop-color="#FFCBFC"/>
<stop offset="1" stop-color="white"/>
</linearGradient>
<linearGradient id="paint2_linear_28_2085" x1="60.7556" y1="22.4649" x2="153.224" y2="22.4649" gradientUnits="userSpaceOnUse">
<stop stop-color="#71FFFB"/>
<stop offset="1" stop-color="#CBFB45"/>
</linearGradient>
<linearGradient id="paint3_linear_28_2085" x1="191.123" y1="152.832" x2="191.123" y2="60.3636" gradientUnits="userSpaceOnUse">
<stop stop-color="#71FFFB"/>
<stop offset="1" stop-color="#CBFB45"/>
</linearGradient>
<linearGradient id="paint4_linear_28_2085" x1="22.8573" y1="152.832" x2="22.8573" y2="60.3633" gradientUnits="userSpaceOnUse">
<stop stop-color="#71FFFB"/>
<stop offset="1" stop-color="#CBFB45"/>
</linearGradient>
<clipPath id="clip0_28_2085">
<rect width="214" height="153" fill="white"/>
</clipPath>
<clipPath id="clip1_28_2085">
<rect width="214" height="153" fill="white"/>
</clipPath>
<clipPath id="clip2_28_2085">
<rect width="214" height="153.285" fill="white" transform="translate(0 -0.142578)"/>
</clipPath>
</defs>
</svg>
