<svg width="1920" height="1250" viewBox="0 0 1920 1250" fill="none" xmlns="http://www.w3.org/2000/svg">
<g clip-path="url(#clip0_3_19588)">
<g clip-path="url(#clip1_3_19588)">
<path d="M1298.15 692.842L1133.18 646.393L1195.46 754.797L1131 698.486L1149.57 794.211L1053.42 680.188L995.509 829.42L960 777.327L807.589 1006.81L888.432 792.81L776.999 864.616L854.575 732.268L777.937 748.064L814.147 692.842L656.804 698.486L784.646 624.865L731.114 613.801L785.735 563.323L621.846 549.242L767.161 497.149L664.464 352.122L891.723 402.813V308.478L944.993 376.066L952.903 318.34L992.23 398.595L1043.58 257.799L1055.6 323.973L1136.44 242.316L1123.34 283.144L1176.88 250.752L1123.34 318.34L1259.92 300.042L1123.34 378.882L1201.47 404.227L1104.78 468.987L1298.15 485.884L1155.03 539.391L1197.64 571.771L1144.1 578.818L1298.15 692.842Z" fill="#FF57CB"/>
<path d="M684.015 334.512L652.161 294.96L640.746 318.39L569.29 191.588L643.374 275.735L650.509 258.174L684.015 334.512Z" fill="#FFF746"/>
<path d="M184.813 914.944L221.349 884.855L31.1128 854.753L80.5523 805.326L281.527 873.027L254.667 894.53L449.183 929.989L184.813 914.944ZM608.103 464.068C492.74 410.26 479.636 278.363 479.636 278.363C459.372 297.451 462.801 330.769 462.801 330.769C369.004 161.498 399.531 46.3605 399.531 46.3605L527.022 0.488159C467.895 175.842 501.026 238.862 501.026 238.862C505.219 209.286 531.866 204.229 531.866 204.229C507.61 362.21 608.103 464.068 608.103 464.068Z" fill="#BBFF42"/>
<path d="M507.297 467.41C196.854 300.417 133.922 80.5426 133.922 80.5426L301.616 3.69232C275.494 251.866 505.607 465.833 507.309 467.41H507.297Z" fill="#6BFFFF"/>
<path d="M544.883 572.985C544.883 572.985 383.135 519.027 305.533 362.623C305.533 362.623 283.167 384.114 294.657 422.401C294.657 422.401 155.563 374.727 109.027 169.308C109.027 169.308 15.9304 280.992 25.5679 472.329C25.5679 472.329 108.439 624.352 280.751 612.211C280.751 612.211 244.529 595.377 238.571 556.001C238.571 556.001 371.544 643.264 544.871 572.998L544.883 572.985Z" fill="#FFF746"/>
<path d="M569.29 897.759C163.21 841.573 -106.254 651.876 41.6515 608.306C176.991 568.454 219.671 684.368 219.671 684.368C316.372 683.404 320.791 773.634 320.791 773.634C320.791 773.634 373.885 747.375 430.772 817.254C484.992 883.866 562.181 896.695 569.29 897.759ZM692.013 940.052C180.72 1113.06 31.1127 1026.61 31.1127 1026.61C31.1127 1026.61 80.9152 1027.39 110.754 997.965C135.824 973.245 159.731 995.812 159.731 995.812C164.086 980.667 179.118 958.926 207.768 953.682C242.401 947.336 260.9 975.999 260.9 975.999C279.024 956.886 306.297 960.14 325.221 976.049C357.764 1003.41 395.764 1020.12 439.133 1012.11C501.915 1000.52 509.174 943.381 535.583 934.219C562.005 925.07 574.634 946.385 574.634 946.385C574.634 946.385 576.812 934.382 590.568 932.742C606.063 930.89 611.207 944.245 611.207 944.245C617.265 934.557 627.654 928.349 650.271 938.838C664.702 945.534 681.524 942.893 692.013 940.027V940.052ZM745.77 996.4C643.587 1074.05 328.463 1248.64 328.463 1248.64C348.352 1225.7 343.921 1211.07 353.308 1191.02C360.868 1174.87 381.983 1180.55 381.983 1180.55C381.983 1180.55 371.582 1151.93 390.169 1137.01C414.876 1117.16 432.449 1137.3 432.449 1137.3C432.449 1137.3 420.959 1087.06 468.846 1058.83C516.721 1030.59 553.519 1063.29 553.519 1063.29C553.519 1063.29 555.56 1033.75 585.111 1021.67C614.662 1009.59 635.051 1030.38 635.051 1030.38C635.051 1030.38 632.135 1011.92 655.765 1001.09C679.396 990.28 693.102 1006.91 693.102 1006.91C697.182 991.619 705.706 993.509 720.587 998.127C735.131 1002.63 745.295 996.676 745.758 996.4H745.77Z" fill="white"/>
<path d="M1311.38 473.268C1311.38 473.268 1517.54 276.811 1494.23 48.8012L1643.29 119.143C1643.29 119.143 1587.37 320.406 1311.38 473.268Z" fill="#6BFFFF"/>
<path d="M1413.59 263.043L1315.13 379.745L1307.23 357.254L1267.11 390.685L1317.57 315.925V342.672L1413.59 263.043Z" fill="#94F995"/>
<path d="M1418.67 99.4548L1362.24 176.518L1362.17 155.853L1306.65 236.096L1305.06 209.085L1235.92 299.541L1300.29 166.192L1303.47 190.811L1367.03 85.1486V115.338L1413.59 41.4666L1418.67 99.4548Z" fill="#FFF746"/>
<path d="M1682.08 929.35L1716.02 962.343L1451.29 955.584L1648.07 936.247L1623.08 912.616L1828.93 861.674L1874.14 915.007L1682.08 929.35Z" fill="#BBFF42"/>
<path d="M1798.98 198.972C1798.98 198.972 1681.68 398.733 1380.69 493.244C1382.65 492.267 1635.57 366.591 1716.99 100.406L1798.99 198.972H1798.98Z" fill="#FFF746"/>
<path d="M1835.54 400.66C1835.54 400.66 1776.36 477.085 1696.7 477.335C1696.7 477.335 1708.6 470.927 1711.04 455.607C1711.04 455.607 1652.73 502.443 1575.09 477.548C1575.09 477.548 1647.36 446.232 1670.15 374.389C1670.15 374.389 1679.86 388.795 1677.37 400.335C1677.37 400.335 1786.13 328.579 1796.72 234.03C1796.72 234.03 1844.63 312.157 1835.54 400.66Z" fill="#BBFF42"/>
<path d="M1854.34 425.831C1854.34 425.831 1851.01 538.928 1825.25 589.031C1825.25 589.031 1746.28 665.218 1608.71 650.561C1608.71 650.561 1642.05 629.121 1650.59 609.12C1649.68 609.758 1574 662.965 1429.17 632.212C1429.17 632.212 1647.56 620.91 1726.73 501.179C1726.73 501.179 1737.24 540.43 1718.16 563.197C1718.16 563.197 1818.13 520.229 1854.33 425.831H1854.34Z" fill="#FFF746"/>
<path d="M1919.38 1186.32C1919.38 1186.32 1432.45 1071.16 1267.93 1010.22C1268.89 1010.47 1284.59 1014.41 1302.97 1005.7C1321.95 996.701 1333.04 992.395 1343.43 1008.52C1343.43 1008.52 1357.03 986.325 1392.83 992.408C1428.62 998.491 1430.43 1019.97 1430.43 1019.97C1430.43 1019.97 1451.88 991.394 1496.2 997.377C1540.51 1003.36 1552.57 1035.99 1552.57 1035.99C1552.57 1035.99 1592.8 989.867 1667.34 1009.28C1741.86 1028.68 1741.86 1088.03 1741.86 1088.03C1741.86 1088.03 1759.64 1060.91 1799.76 1076.86C1829.92 1088.85 1824.63 1123.63 1824.63 1123.63C1824.63 1123.63 1851.81 1111.84 1867.25 1128.02C1886.4 1148.12 1884.91 1165.68 1919.38 1186.34V1186.32ZM1913.68 726.824C1891.27 763.784 1822.49 808.305 1721.52 847.456C1617.83 887.658 1480.19 922.166 1324 936.96C1331.38 936.184 1411.56 926.371 1470.42 860.185C1532.16 790.757 1585.77 820.145 1585.77 820.145C1585.77 820.145 1594.18 728.926 1691.62 732.606C1705.59 683.955 1750.41 648.359 1803.55 648.359C1812.96 648.359 1822.1 649.473 1830.86 651.588H1830.87C1869.61 660.9 1900.82 689.587 1913.66 726.824H1913.68Z" fill="white"/>
</g>
</g>
<defs>
<clipPath id="clip0_3_19588">
<rect width="1920" height="1249.12" fill="white"/>
</clipPath>
<clipPath id="clip1_3_19588">
<rect width="1920" height="1249.12" fill="white"/>
</clipPath>
</defs>
</svg>
