<svg width="21" height="21" viewBox="0 0 21 21" fill="none" xmlns="http://www.w3.org/2000/svg">
<path fill-rule="evenodd" clip-rule="evenodd" d="M17.5082 6.09259C17.6957 6.28012 17.801 6.53443 17.801 6.79959C17.801 7.06476 17.6957 7.31906 17.5082 7.50659L9.50819 15.5066C9.32066 15.6941 9.06635 15.7994 8.80119 15.7994C8.53602 15.7994 8.28172 15.6941 8.09419 15.5066L4.09419 11.5066C3.91203 11.318 3.81124 11.0654 3.81351 10.8032C3.81579 10.541 3.92096 10.2902 4.10637 10.1048C4.29178 9.91936 4.54259 9.8142 4.80479 9.81192C5.06698 9.80964 5.31959 9.91043 5.50819 10.0926L8.80119 13.3856L16.0942 6.09259C16.2817 5.90512 16.536 5.7998 16.8012 5.7998C17.0664 5.7998 17.3207 5.90512 17.5082 6.09259Z" fill="black"/>
</svg>
