<svg width="17" height="17" viewBox="0 0 17 17" fill="none" xmlns="http://www.w3.org/2000/svg">
<path fill-rule="evenodd" clip-rule="evenodd" d="M4.24095 4.44625C4.3347 4.35261 4.46179 4.30002 4.59429 4.30002C4.72679 4.30002 4.85387 4.35261 4.94762 4.44625L8.59429 8.09291L12.241 4.44625C12.2867 4.39712 12.3419 4.35772 12.4033 4.33039C12.4646 4.30307 12.5308 4.28837 12.5979 4.28719C12.6651 4.286 12.7318 4.29835 12.794 4.3235C12.8563 4.34865 12.9128 4.38608 12.9603 4.43356C13.0078 4.48104 13.0452 4.53759 13.0704 4.59985C13.0955 4.66211 13.1079 4.72879 13.1067 4.79593C13.1055 4.86307 13.0908 4.92927 13.0635 4.99061C13.0361 5.05194 12.9967 5.10714 12.9476 5.15291L9.30095 8.79958L12.9476 12.4462C12.9967 12.492 13.0361 12.5472 13.0635 12.6086C13.0908 12.6699 13.1055 12.7361 13.1067 12.8032C13.1079 12.8704 13.0955 12.9371 13.0704 12.9993C13.0452 13.0616 13.0078 13.1181 12.9603 13.1656C12.9128 13.2131 12.8563 13.2505 12.794 13.2757C12.7318 13.3008 12.6651 13.3132 12.5979 13.312C12.5308 13.3108 12.4646 13.2961 12.4033 13.2688C12.3419 13.2414 12.2867 13.202 12.241 13.1529L8.59429 9.50625L4.94762 13.1529C4.85284 13.2412 4.72747 13.2893 4.59794 13.287C4.4684 13.2847 4.34481 13.2323 4.25321 13.1407C4.1616 13.0491 4.10912 12.9255 4.10684 12.7959C4.10455 12.6664 4.15263 12.541 4.24095 12.4462L7.88762 8.79958L4.24095 5.15291C4.14732 5.05916 4.09473 4.93208 4.09473 4.79958C4.09473 4.66708 4.14732 4.54 4.24095 4.44625Z" fill="black"/>
</svg>
