<svg width="21" height="21" viewBox="0 0 21 21" fill="none" xmlns="http://www.w3.org/2000/svg">
<path fill-rule="evenodd" clip-rule="evenodd" d="M11.4753 4.11833C11.5925 4.00129 11.7514 3.93555 11.917 3.93555C12.0826 3.93555 12.2415 4.00129 12.3587 4.11833L18.6087 10.3683C18.7257 10.4855 18.7914 10.6444 18.7914 10.81C18.7914 10.9756 18.7257 11.1345 18.6087 11.2517L12.3587 17.5017C12.3014 17.5631 12.2324 17.6123 12.1558 17.6465C12.0791 17.6806 11.9963 17.699 11.9124 17.7005C11.8285 17.702 11.7451 17.6865 11.6673 17.6551C11.5895 17.6237 11.5188 17.5769 11.4595 17.5175C11.4001 17.4582 11.3533 17.3875 11.3219 17.3097C11.2905 17.2318 11.275 17.1485 11.2765 17.0646C11.278 16.9806 11.2963 16.8979 11.3305 16.8212C11.3647 16.7445 11.4139 16.6755 11.4753 16.6183L16.6587 11.435H3.16699C3.00123 11.435 2.84226 11.3691 2.72505 11.2519C2.60784 11.1347 2.54199 10.9758 2.54199 10.81C2.54199 10.6442 2.60784 10.4853 2.72505 10.3681C2.84226 10.2508 3.00123 10.185 3.16699 10.185H16.6587L11.4753 5.00166C11.3583 4.88448 11.2925 4.72562 11.2925 4.56C11.2925 4.39437 11.3583 4.23552 11.4753 4.11833Z" fill="#CBFB45"/>
</svg>
