<svg width="26" height="27" viewBox="0 0 26 27" fill="none" xmlns="http://www.w3.org/2000/svg">
<path d="M22.9389 10.5423C22.556 10.1421 22.1599 9.72977 22.0106 9.36719C21.8725 9.03508 21.8644 8.48461 21.8562 7.95141C21.841 6.96016 21.8248 5.83687 21.0437 5.05586C20.2627 4.27484 19.1395 4.25859 18.1482 4.24336C17.615 4.23523 17.0645 4.22711 16.7324 4.08898C16.3709 3.93969 15.9575 3.54359 15.5573 3.1607C14.8566 2.48734 14.0603 1.72461 13 1.72461C11.9397 1.72461 11.1445 2.48734 10.4427 3.1607C10.0425 3.54359 9.63016 3.93969 9.26758 4.08898C8.9375 4.22711 8.385 4.23523 7.8518 4.24336C6.86055 4.25859 5.73727 4.27484 4.95625 5.05586C4.17523 5.83687 4.16406 6.96016 4.14375 7.95141C4.13562 8.48461 4.1275 9.03508 3.98937 9.36719C3.84008 9.72875 3.44398 10.1421 3.06109 10.5423C2.38773 11.243 1.625 12.0393 1.625 13.0996C1.625 14.1599 2.38773 14.9552 3.06109 15.657C3.44398 16.0571 3.84008 16.4695 3.98937 16.832C4.1275 17.1641 4.13562 17.7146 4.14375 18.2478C4.15898 19.2391 4.17523 20.3623 4.95625 21.1434C5.73727 21.9244 6.86055 21.9406 7.8518 21.9559C8.385 21.964 8.93547 21.9721 9.26758 22.1102C9.62914 22.2595 10.0425 22.6556 10.4427 23.0385C11.1434 23.7119 11.9397 24.4746 13 24.4746C14.0603 24.4746 14.8555 23.7119 15.5573 23.0385C15.9575 22.6556 16.3698 22.2595 16.7324 22.1102C17.0645 21.9721 17.615 21.964 18.1482 21.9559C19.1395 21.9406 20.2627 21.9244 21.0437 21.1434C21.8248 20.3623 21.841 19.2391 21.8562 18.2478C21.8644 17.7146 21.8725 17.1641 22.0106 16.832C22.1599 16.4705 22.556 16.0571 22.9389 15.657C23.6123 14.9562 24.375 14.1599 24.375 13.0996C24.375 12.0393 23.6123 11.2441 22.9389 10.5423ZM17.6373 11.237L11.9498 16.9245C11.8744 17 11.7848 17.0599 11.6861 17.1008C11.5875 17.1417 11.4818 17.1627 11.375 17.1627C11.2682 17.1627 11.1625 17.1417 11.0639 17.1008C10.9652 17.0599 10.8756 17 10.8002 16.9245L8.36266 14.487C8.2102 14.3345 8.12455 14.1277 8.12455 13.9121C8.12455 13.6965 8.2102 13.4897 8.36266 13.3373C8.51511 13.1848 8.72189 13.0992 8.9375 13.0992C9.15311 13.0992 9.35989 13.1848 9.51234 13.3373L11.375 15.2009L16.4877 10.0873C16.5631 10.0118 16.6528 9.95189 16.7514 9.91104C16.85 9.87018 16.9557 9.84916 17.0625 9.84916C17.1693 9.84916 17.275 9.87018 17.3736 9.91104C17.4722 9.95189 17.5619 10.0118 17.6373 10.0873C17.7128 10.1628 17.7727 10.2524 17.8136 10.351C17.8544 10.4496 17.8755 10.5554 17.8755 10.6621C17.8755 10.7689 17.8544 10.8746 17.8136 10.9732C17.7727 11.0718 17.7128 11.1615 17.6373 11.237Z" fill="#FF66C8"/>
</svg>
