<svg width="26" height="27" viewBox="0 0 26 27" fill="none" xmlns="http://www.w3.org/2000/svg">
<path d="M13 2.9375C10.9109 2.9375 8.86879 3.55698 7.13179 4.7176C5.3948 5.87822 4.04098 7.52786 3.24153 9.45791C2.44208 11.3879 2.2329 13.5117 2.64046 15.5606C3.04802 17.6096 4.054 19.4916 5.53119 20.9688C7.00838 22.446 8.89044 23.452 10.9394 23.8595C12.9883 24.2671 15.1121 24.0579 17.0421 23.2585C18.9721 22.459 20.6218 21.1052 21.7824 19.3682C22.943 17.6312 23.5625 15.5891 23.5625 13.5C23.5595 10.6996 22.4458 8.01466 20.4656 6.03445C18.4853 4.05424 15.8004 2.94046 13 2.9375ZM21.902 12.7058C21.6433 12.6936 21.3843 12.6875 21.125 12.6875C19.6178 12.6879 18.1173 12.8874 16.6623 13.2806C16.3076 12.228 15.8501 11.2129 15.2963 10.25C16.7405 9.37912 18.0479 8.29932 19.176 7.0457C20.7413 8.53914 21.7102 10.5508 21.902 12.7058ZM17.9034 6.03109C16.8886 7.14623 15.7156 8.10641 14.4219 8.88094C13.3384 7.35589 12.0132 6.01798 10.4985 4.92C11.7411 4.55727 13.0476 4.46876 14.3277 4.6606C15.6078 4.85245 16.831 5.32006 17.9126 6.03109H17.9034ZM8.69883 5.6675C10.359 6.71298 11.8063 8.06313 12.9645 9.64672C10.9375 10.5809 8.73189 11.064 6.5 11.0625C5.81117 11.0621 5.12312 11.0163 4.44032 10.9254C5.11973 8.68442 6.64789 6.79763 8.69883 5.6675ZM4.0625 13.5C4.06246 13.1729 4.08043 12.8461 4.11633 12.5209C4.90605 12.6318 5.70254 12.6875 6.5 12.6875C9.04876 12.6899 11.5656 12.1207 13.8653 11.0219C14.372 11.8968 14.7908 12.8198 15.1156 13.7773C14.2525 14.1015 13.4172 14.4955 12.6181 14.9554C10.3889 16.2432 8.47749 18.0155 7.02508 20.1412C6.0924 19.3045 5.34651 18.2806 4.83605 17.1363C4.32559 15.992 4.06201 14.753 4.0625 13.5ZM8.32813 21.1172C9.64678 19.1669 11.3916 17.5419 13.4306 16.3651C14.1123 15.9716 14.8238 15.6321 15.5584 15.3495C15.8098 16.4651 15.9368 17.6051 15.9372 18.7487C15.9377 19.8605 15.8189 20.9692 15.5827 22.0556C14.3758 22.4202 13.1053 22.5251 11.8549 22.3634C10.6045 22.2016 9.40257 21.7769 8.32813 21.1172ZM17.3733 21.2929C17.4987 20.4523 17.5618 19.6037 17.5622 18.7538C17.562 17.4384 17.4104 16.1274 17.1102 14.8467C18.4193 14.4935 19.7691 14.3139 21.125 14.3125C21.3823 14.3125 21.6399 14.3189 21.8979 14.3318C21.7619 15.7711 21.2792 17.156 20.4913 18.3681C19.7033 19.5802 18.6335 20.5834 17.3733 21.2919V21.2929Z" fill="black"/>
</svg>
