<svg width="17" height="17" viewBox="0 0 17 17" fill="none" xmlns="http://www.w3.org/2000/svg">
<path fill-rule="evenodd" clip-rule="evenodd" d="M3.66088 4.4482C3.75463 4.35457 3.88171 4.30197 4.01421 4.30197C4.14671 4.30197 4.27379 4.35457 4.36754 4.4482L8.01421 8.09487L11.6609 4.4482C11.7066 4.39908 11.7618 4.35968 11.8232 4.33235C11.8845 4.30502 11.9507 4.29032 12.0179 4.28914C12.085 4.28796 12.1517 4.30031 12.2139 4.32545C12.2762 4.3506 12.3328 4.38803 12.3802 4.43551C12.4277 4.48299 12.4651 4.53954 12.4903 4.6018C12.5154 4.66406 12.5278 4.73075 12.5266 4.79788C12.5254 4.86502 12.5107 4.93123 12.4834 4.99256C12.4561 5.05389 12.4167 5.10909 12.3675 5.15487L8.72088 8.80153L12.3675 12.4482C12.4167 12.494 12.4561 12.5492 12.4834 12.6105C12.5107 12.6718 12.5254 12.7381 12.5266 12.8052C12.5278 12.8723 12.5154 12.939 12.4903 13.0013C12.4651 13.0635 12.4277 13.1201 12.3802 13.1676C12.3328 13.215 12.2762 13.2525 12.2139 13.2776C12.1517 13.3028 12.085 13.3151 12.0179 13.3139C11.9507 13.3127 11.8845 13.298 11.8232 13.2707C11.7618 13.2434 11.7066 13.204 11.6609 13.1549L8.01421 9.5082L4.36754 13.1549C4.27276 13.2432 4.14739 13.2913 4.01786 13.289C3.88833 13.2867 3.76474 13.2342 3.67313 13.1426C3.58152 13.051 3.52904 12.9274 3.52676 12.7979C3.52447 12.6683 3.57255 12.543 3.66088 12.4482L7.30754 8.80153L3.66088 5.15487C3.56724 5.06112 3.51465 4.93404 3.51465 4.80153C3.51465 4.66903 3.56724 4.54195 3.66088 4.4482Z" fill="black"/>
</svg>
