<svg width="21" height="21" viewBox="0 0 21 21" fill="none" xmlns="http://www.w3.org/2000/svg">
<path fill-rule="evenodd" clip-rule="evenodd" d="M17.5082 6.09357C17.6957 6.2811 17.801 6.5354 17.801 6.80057C17.801 7.06573 17.6957 7.32004 17.5082 7.50757L9.50819 15.5076C9.32066 15.695 9.06635 15.8004 8.80119 15.8004C8.53602 15.8004 8.28172 15.695 8.09419 15.5076L4.09419 11.5076C3.91203 11.319 3.81124 11.0664 3.81351 10.8042C3.81579 10.542 3.92096 10.2912 4.10637 10.1057C4.29178 9.92034 4.54259 9.81517 4.80479 9.81289C5.06698 9.81062 5.31959 9.91141 5.50819 10.0936L8.80119 13.3866L16.0942 6.09357C16.2817 5.9061 16.536 5.80078 16.8012 5.80078C17.0664 5.80078 17.3207 5.9061 17.5082 6.09357Z" fill="black"/>
</svg>
