<svg width="21" height="21" viewBox="0 0 21 21" fill="none" xmlns="http://www.w3.org/2000/svg">
<path fill-rule="evenodd" clip-rule="evenodd" d="M17.3021 6.09259C17.4896 6.28012 17.5949 6.53443 17.5949 6.79959C17.5949 7.06476 17.4896 7.31906 17.3021 7.50659L9.30213 15.5066C9.11461 15.6941 8.8603 15.7994 8.59513 15.7994C8.32997 15.7994 8.07566 15.6941 7.88813 15.5066L3.88813 11.5066C3.70598 11.318 3.60518 11.0654 3.60746 10.8032C3.60974 10.541 3.71491 10.2902 3.90032 10.1048C4.08572 9.91936 4.33654 9.8142 4.59873 9.81192C4.86093 9.80964 5.11353 9.91043 5.30213 10.0926L8.59513 13.3856L15.8881 6.09259C16.0757 5.90512 16.33 5.7998 16.5951 5.7998C16.8603 5.7998 17.1146 5.90512 17.3021 6.09259Z" fill="black"/>
</svg>
