<svg width="21" height="21" viewBox="0 0 21 21" fill="none" xmlns="http://www.w3.org/2000/svg">
<path fill-rule="evenodd" clip-rule="evenodd" d="M16.7221 6.09259C16.9095 6.28012 17.0148 6.53443 17.0148 6.79959C17.0148 7.06476 16.9095 7.31906 16.7221 7.50659L8.72206 15.5066C8.53453 15.6941 8.28022 15.7994 8.01506 15.7994C7.74989 15.7994 7.49558 15.6941 7.30806 15.5066L3.30806 11.5066C3.1259 11.318 3.0251 11.0654 3.02738 10.8032C3.02966 10.541 3.13483 10.2902 3.32024 10.1048C3.50565 9.91936 3.75646 9.8142 4.01865 9.81192C4.28085 9.80964 4.53345 9.91043 4.72206 10.0926L8.01506 13.3856L15.3081 6.09259C15.4956 5.90512 15.7499 5.7998 16.0151 5.7998C16.2802 5.7998 16.5345 5.90512 16.7221 6.09259Z" fill="black"/>
</svg>
