<svg width="40" height="41" viewBox="0 0 40 41" fill="none" xmlns="http://www.w3.org/2000/svg">
<path d="M19.9951 4.37012C11.5842 4.37012 4.99512 8.21387 4.99512 13.1201V28.1201C4.99512 33.0264 11.5842 36.8701 19.9951 36.8701C28.4061 36.8701 34.9951 33.0264 34.9951 28.1201V13.1201C34.9951 8.21387 28.4061 4.37012 19.9951 4.37012ZM32.4951 20.6201C32.4951 22.1232 31.2639 23.6561 29.1186 24.8264C26.7029 26.1436 23.4623 26.8701 19.9951 26.8701C16.5279 26.8701 13.2873 26.1436 10.8717 24.8264C8.72637 23.6561 7.49512 22.1232 7.49512 20.6201V18.0201C10.1607 20.3639 14.7186 21.8701 19.9951 21.8701C25.2717 21.8701 29.8295 20.3576 32.4951 18.0201V20.6201ZM10.8717 8.91387C13.2873 7.59668 16.5279 6.87012 19.9951 6.87012C23.4623 6.87012 26.7029 7.59668 29.1186 8.91387C31.2639 10.0842 32.4951 11.617 32.4951 13.1201C32.4951 14.6232 31.2639 16.1561 29.1186 17.3264C26.7029 18.6436 23.4623 19.3701 19.9951 19.3701C16.5279 19.3701 13.2873 18.6436 10.8717 17.3264C8.72637 16.1561 7.49512 14.6232 7.49512 13.1201C7.49512 11.617 8.72637 10.0842 10.8717 8.91387ZM29.1186 32.3264C26.7029 33.6436 23.4623 34.3701 19.9951 34.3701C16.5279 34.3701 13.2873 33.6436 10.8717 32.3264C8.72637 31.1561 7.49512 29.6232 7.49512 28.1201V25.5201C10.1607 27.8639 14.7186 29.3701 19.9951 29.3701C25.2717 29.3701 29.8295 27.8576 32.4951 25.5201V28.1201C32.4951 29.6232 31.2639 31.1561 29.1186 32.3264Z" fill="#6666FF"/>
</svg>
