<svg width="40" height="41" viewBox="0 0 40 41" fill="none" xmlns="http://www.w3.org/2000/svg">
<path d="M5 10.3398C5 10.0083 5.1317 9.69038 5.36612 9.45596C5.60054 9.22154 5.91848 9.08984 6.25 9.08984H33.75C34.0815 9.08984 34.3995 9.22154 34.6339 9.45596C34.8683 9.69038 35 10.0083 35 10.3398C35 10.6714 34.8683 10.9893 34.6339 11.2237C34.3995 11.4581 34.0815 11.5898 33.75 11.5898H6.25C5.91848 11.5898 5.60054 11.4581 5.36612 11.2237C5.1317 10.9893 5 10.6714 5 10.3398ZM6.25 21.5898H33.75C34.0815 21.5898 34.3995 21.4581 34.6339 21.2237C34.8683 20.9893 35 20.6714 35 20.3398C35 20.0083 34.8683 19.6904 34.6339 19.456C34.3995 19.2215 34.0815 19.0898 33.75 19.0898H6.25C5.91848 19.0898 5.60054 19.2215 5.36612 19.456C5.1317 19.6904 5 20.0083 5 20.3398C5 20.6714 5.1317 20.9893 5.36612 21.2237C5.60054 21.4581 5.91848 21.5898 6.25 21.5898ZM22.5 29.0898H6.25C5.91848 29.0898 5.60054 29.2215 5.36612 29.456C5.1317 29.6904 5 30.0083 5 30.3398C5 30.6714 5.1317 30.9893 5.36612 31.2237C5.60054 31.4581 5.91848 31.5898 6.25 31.5898H22.5C22.8315 31.5898 23.1495 31.4581 23.3839 31.2237C23.6183 30.9893 23.75 30.6714 23.75 30.3398C23.75 30.0083 23.6183 29.6904 23.3839 29.456C23.1495 29.2215 22.8315 29.0898 22.5 29.0898ZM36.25 29.0898H33.75V26.5898C33.75 26.2583 33.6183 25.9404 33.3839 25.706C33.1495 25.4715 32.8315 25.3398 32.5 25.3398C32.1685 25.3398 31.8505 25.4715 31.6161 25.706C31.3817 25.9404 31.25 26.2583 31.25 26.5898V29.0898H28.75C28.4185 29.0898 28.1005 29.2215 27.8661 29.456C27.6317 29.6904 27.5 30.0083 27.5 30.3398C27.5 30.6714 27.6317 30.9893 27.8661 31.2237C28.1005 31.4581 28.4185 31.5898 28.75 31.5898H31.25V34.0898C31.25 34.4214 31.3817 34.7393 31.6161 34.9737C31.8505 35.2081 32.1685 35.3398 32.5 35.3398C32.8315 35.3398 33.1495 35.2081 33.3839 34.9737C33.6183 34.7393 33.75 34.4214 33.75 34.0898V31.5898H36.25C36.5815 31.5898 36.8995 31.4581 37.1339 31.2237C37.3683 30.9893 37.5 30.6714 37.5 30.3398C37.5 30.0083 37.3683 29.6904 37.1339 29.456C36.8995 29.2215 36.5815 29.0898 36.25 29.0898Z" fill="#726FF7"/>
</svg>
