<svg width="40" height="41" viewBox="0 0 40 41" fill="none" xmlns="http://www.w3.org/2000/svg">
<path d="M33.7168 19.304C33.6694 19.1037 33.5733 18.9181 33.4371 18.7638C33.3008 18.6095 33.1285 18.4913 32.9355 18.4196L23.9339 15.0431L26.2246 3.58524C26.2764 3.31903 26.2403 3.04316 26.1216 2.79928C26.003 2.55539 25.8082 2.35672 25.5667 2.23324C25.3252 2.10977 25.0501 2.06818 24.7829 2.11477C24.5157 2.16135 24.271 2.29358 24.0855 2.49149L6.5855 21.2415C6.44337 21.3913 6.34055 21.5739 6.28622 21.7731C6.2319 21.9723 6.22777 22.1819 6.2742 22.383C6.32063 22.5842 6.41617 22.7708 6.55229 22.926C6.68841 23.0813 6.86086 23.2004 7.05425 23.2727L16.0589 26.6493L13.7746 38.0946C13.7227 38.3608 13.7588 38.6367 13.8775 38.8806C13.9962 39.1245 14.1909 39.3231 14.4324 39.4466C14.6739 39.5701 14.949 39.6117 15.2162 39.5651C15.4834 39.5185 15.7282 39.3863 15.9136 39.1884L33.4136 20.4384C33.5532 20.2886 33.6538 20.1068 33.7067 19.909C33.7595 19.7112 33.763 19.5034 33.7168 19.304ZM17.0886 34.2774L18.7246 26.0931C18.7831 25.8028 18.7367 25.5012 18.5936 25.2419C18.4506 24.9827 18.2201 24.7826 17.9433 24.6774L9.68706 21.5759L22.9089 7.41024L21.2746 15.5946C21.216 15.8849 21.2624 16.1865 21.4055 16.4458C21.5486 16.705 21.779 16.905 22.0558 17.0102L30.3058 20.104L17.0886 34.2774Z" fill="#726FF7"/>
</svg>
