<svg width="26" height="27" viewBox="0 0 26 27" fill="none" xmlns="http://www.w3.org/2000/svg">
<path d="M21.9375 2.9375H4.0625C3.63152 2.9375 3.2182 3.1087 2.91345 3.41345C2.6087 3.7182 2.4375 4.13152 2.4375 4.5625V22.4375C2.4375 22.8685 2.6087 23.2818 2.91345 23.5865C3.2182 23.8913 3.63152 24.0625 4.0625 24.0625H21.9375C22.3685 24.0625 22.7818 23.8913 23.0865 23.5865C23.3913 23.2818 23.5625 22.8685 23.5625 22.4375V4.5625C23.5625 4.13152 23.3913 3.7182 23.0865 3.41345C22.7818 3.1087 22.3685 2.9375 21.9375 2.9375ZM21.9375 22.4375H4.0625V4.5625H21.9375V22.4375ZM9.75 11.875V18.375C9.75 18.5905 9.6644 18.7972 9.51202 18.9495C9.35965 19.1019 9.15299 19.1875 8.9375 19.1875C8.72201 19.1875 8.51535 19.1019 8.36298 18.9495C8.2106 18.7972 8.125 18.5905 8.125 18.375V11.875C8.125 11.6595 8.2106 11.4528 8.36298 11.3005C8.51535 11.1481 8.72201 11.0625 8.9375 11.0625C9.15299 11.0625 9.35965 11.1481 9.51202 11.3005C9.6644 11.4528 9.75 11.6595 9.75 11.875ZM18.6875 14.7188V18.375C18.6875 18.5905 18.6019 18.7972 18.4495 18.9495C18.2972 19.1019 18.0905 19.1875 17.875 19.1875C17.6595 19.1875 17.4528 19.1019 17.3005 18.9495C17.1481 18.7972 17.0625 18.5905 17.0625 18.375V14.7188C17.0625 14.18 16.8485 13.6634 16.4676 13.2824C16.0866 12.9015 15.57 12.6875 15.0312 12.6875C14.4925 12.6875 13.9759 12.9015 13.5949 13.2824C13.214 13.6634 13 14.18 13 14.7188V18.375C13 18.5905 12.9144 18.7972 12.762 18.9495C12.6097 19.1019 12.403 19.1875 12.1875 19.1875C11.972 19.1875 11.7653 19.1019 11.613 18.9495C11.4606 18.7972 11.375 18.5905 11.375 18.375V11.875C11.376 11.676 11.45 11.4843 11.583 11.3362C11.716 11.1881 11.8987 11.094 12.0965 11.0717C12.2942 11.0494 12.4933 11.1005 12.6559 11.2152C12.8185 11.33 12.9334 11.5004 12.9787 11.6942C13.5283 11.3214 14.1691 11.1053 14.8323 11.0691C15.4955 11.033 16.156 11.1782 16.7429 11.4891C17.3298 11.8001 17.821 12.265 18.1636 12.834C18.5061 13.403 18.6873 14.0546 18.6875 14.7188ZM10.1562 9.03125C10.1562 9.2723 10.0848 9.50793 9.95085 9.70835C9.81694 9.90877 9.62659 10.065 9.4039 10.1572C9.1812 10.2495 8.93615 10.2736 8.69973 10.2266C8.46332 10.1796 8.24616 10.0635 8.07571 9.89304C7.90527 9.72259 7.78919 9.50543 7.74217 9.26902C7.69514 9.0326 7.71928 8.78755 7.81152 8.56485C7.90377 8.34216 8.05998 8.15181 8.2604 8.0179C8.46082 7.88398 8.69645 7.8125 8.9375 7.8125C9.26073 7.8125 9.57073 7.9409 9.79929 8.16946C10.0278 8.39802 10.1562 8.70802 10.1562 9.03125Z" fill="black"/>
</svg>
