<svg width="40" height="41" viewBox="0 0 40 41" fill="none" xmlns="http://www.w3.org/2000/svg">
<path d="M29.3751 14.0898C28.6465 14.089 27.9292 14.2712 27.2892 14.6195C27.0978 14.027 26.7821 13.4821 26.3633 13.0213C25.9444 12.5606 25.4321 12.1945 24.8604 11.9477C24.2887 11.7008 23.6709 11.5788 23.0483 11.5899C22.4258 11.6009 21.8127 11.7447 21.2501 12.0117V7.21484C21.2501 6.05452 20.7892 4.94172 19.9687 4.12125C19.1483 3.30078 18.0355 2.83984 16.8751 2.83984C15.7148 2.83984 14.602 3.30078 13.7815 4.12125C12.9611 4.94172 12.5001 6.05452 12.5001 7.21484V19.7148L11.9033 18.757C11.6147 18.26 11.231 17.8246 10.7741 17.4758C10.3173 17.127 9.79619 16.8716 9.24064 16.7242C8.11864 16.4265 6.92433 16.5867 5.92045 17.1695C4.91656 17.7524 4.18533 18.7102 3.88762 19.8322C3.5899 20.9542 3.75009 22.1485 4.33295 23.1523L5.06264 24.4383C10.4392 33.9164 12.6642 37.8398 20.0001 37.8398C23.6456 37.8357 27.1406 36.3857 29.7183 33.808C32.296 31.2303 33.746 27.7353 33.7501 24.0898V18.4648C33.7501 17.3045 33.2892 16.1917 32.4687 15.3713C31.6483 14.5508 30.5355 14.0898 29.3751 14.0898ZM31.2501 24.0898C31.2468 27.0725 30.0605 29.9321 27.9514 32.0411C25.8424 34.1502 22.9828 35.3365 20.0001 35.3398C14.1204 35.3398 12.5251 32.5273 7.23764 23.2023L6.50482 21.9102V21.9023C6.25601 21.4721 6.18816 20.9608 6.3162 20.4806C6.44423 20.0004 6.75767 19.5906 7.18764 19.3414C7.47245 19.1764 7.796 19.0902 8.12514 19.0914C8.45474 19.0909 8.77864 19.1773 9.0642 19.3419C9.34977 19.5065 9.5869 19.7435 9.7517 20.0289C9.75806 20.0414 9.76537 20.0534 9.77357 20.0648L12.6908 24.7523C12.8347 24.9822 13.0496 25.159 13.3028 25.2561C13.5561 25.3531 13.8341 25.3652 14.0948 25.2904C14.3555 25.2156 14.5849 25.058 14.7482 24.8415C14.9115 24.6249 14.9999 24.3611 15.0001 24.0898V7.21484C15.0001 6.71756 15.1977 6.24065 15.5493 5.88902C15.9009 5.53739 16.3779 5.33984 16.8751 5.33984C17.3724 5.33984 17.8493 5.53739 18.201 5.88902C18.5526 6.24065 18.7501 6.71756 18.7501 7.21484V17.8398C18.7501 18.1714 18.8818 18.4893 19.1163 18.7237C19.3507 18.9581 19.6686 19.0898 20.0001 19.0898C20.3317 19.0898 20.6496 18.9581 20.884 18.7237C21.1184 18.4893 21.2501 18.1714 21.2501 17.8398V15.9648C21.2501 15.4676 21.4477 14.9906 21.7993 14.639C22.1509 14.2874 22.6279 14.0898 23.1251 14.0898C23.6224 14.0898 24.0993 14.2874 24.451 14.639C24.8026 14.9906 25.0001 15.4676 25.0001 15.9648V19.0898C25.0001 19.4214 25.1318 19.7393 25.3663 19.9737C25.6007 20.2081 25.9186 20.3398 26.2501 20.3398C26.5817 20.3398 26.8996 20.2081 27.134 19.9737C27.3684 19.7393 27.5001 19.4214 27.5001 19.0898V18.4648C27.5001 17.9676 27.6977 17.4906 28.0493 17.139C28.4009 16.7874 28.8779 16.5898 29.3751 16.5898C29.8724 16.5898 30.3493 16.7874 30.701 17.139C31.0526 17.4906 31.2501 17.9676 31.2501 18.4648V24.0898Z" fill="#726FF7"/>
</svg>
