<svg width="41" height="41" viewBox="0 0 41 41" fill="none" xmlns="http://www.w3.org/2000/svg">
<path d="M34.0801 9.58984H27.8301V8.33984C27.8301 7.34528 27.435 6.39145 26.7317 5.68819C26.0285 4.98493 25.0746 4.58984 24.0801 4.58984H16.5801C15.5855 4.58984 14.6317 4.98493 13.9284 5.68819C13.2252 6.39145 12.8301 7.34528 12.8301 8.33984V9.58984H6.58008C5.91704 9.58984 5.28115 9.85324 4.81231 10.3221C4.34347 10.7909 4.08008 11.4268 4.08008 12.0898V32.0898C4.08008 32.7529 4.34347 33.3888 4.81231 33.8576C5.28115 34.3265 5.91704 34.5898 6.58008 34.5898H34.0801C34.7431 34.5898 35.379 34.3265 35.8478 33.8576C36.3167 33.3888 36.5801 32.7529 36.5801 32.0898V12.0898C36.5801 11.4268 36.3167 10.7909 35.8478 10.3221C35.379 9.85324 34.7431 9.58984 34.0801 9.58984ZM15.3301 8.33984C15.3301 8.00832 15.4618 7.69038 15.6962 7.45596C15.9306 7.22154 16.2486 7.08984 16.5801 7.08984H24.0801C24.4116 7.08984 24.7295 7.22154 24.964 7.45596C25.1984 7.69038 25.3301 8.00832 25.3301 8.33984V9.58984H15.3301V8.33984ZM34.0801 12.0898V18.5914C29.861 20.8879 25.1337 22.0907 20.3301 22.0898C15.5266 22.0907 10.7995 20.8885 6.58008 18.593V12.0898H34.0801ZM34.0801 32.0898H6.58008V21.4086C10.8612 23.5027 15.5642 24.5908 20.3301 24.5898C25.096 24.5899 29.799 23.5013 34.0801 21.407V32.0898ZM16.5801 18.3398C16.5801 18.0083 16.7118 17.6904 16.9462 17.456C17.1806 17.2215 17.4986 17.0898 17.8301 17.0898H22.8301C23.1616 17.0898 23.4795 17.2215 23.714 17.456C23.9484 17.6904 24.0801 18.0083 24.0801 18.3398C24.0801 18.6714 23.9484 18.9893 23.714 19.2237C23.4795 19.4581 23.1616 19.5898 22.8301 19.5898H17.8301C17.4986 19.5898 17.1806 19.4581 16.9462 19.2237C16.7118 18.9893 16.5801 18.6714 16.5801 18.3398Z" fill="#6666FF"/>
</svg>
