<svg width="26" height="27" viewBox="0 0 26 27" fill="none" xmlns="http://www.w3.org/2000/svg">
<path d="M13 8.625C12.0358 8.625 11.0933 8.91091 10.2916 9.44659C9.48991 9.98226 8.86506 10.7436 8.49609 11.6344C8.12711 12.5252 8.03057 13.5054 8.21867 14.4511C8.40677 15.3967 8.87107 16.2654 9.55285 16.9471C10.2346 17.6289 11.1033 18.0932 12.0489 18.2813C12.9946 18.4694 13.9748 18.3729 14.8656 18.0039C15.7564 17.6349 16.5177 17.0101 17.0534 16.2084C17.5891 15.4067 17.875 14.4642 17.875 13.5C17.8737 12.2075 17.3596 10.9683 16.4457 10.0543C15.5317 9.14039 14.2925 8.62634 13 8.625ZM13 16.75C12.3572 16.75 11.7289 16.5594 11.1944 16.2023C10.6599 15.8452 10.2434 15.3376 9.99739 14.7437C9.75141 14.1499 9.68705 13.4964 9.81245 12.866C9.93785 12.2355 10.2474 11.6564 10.7019 11.2019C11.1564 10.7474 11.7355 10.4378 12.366 10.3124C12.9964 10.187 13.6499 10.2514 14.2437 10.4974C14.8376 10.7434 15.3452 11.1599 15.7023 11.6944C16.0594 12.2289 16.25 12.8572 16.25 13.5C16.25 14.362 15.9076 15.1886 15.2981 15.7981C14.6886 16.4076 13.862 16.75 13 16.75ZM17.875 2.9375H8.125C6.61708 2.93911 5.17138 3.53885 4.10511 4.60511C3.03885 5.67138 2.43911 7.11708 2.4375 8.625V18.375C2.43911 19.8829 3.03885 21.3286 4.10511 22.3949C5.17138 23.4612 6.61708 24.0609 8.125 24.0625H17.875C19.3829 24.0609 20.8286 23.4612 21.8949 22.3949C22.9612 21.3286 23.5609 19.8829 23.5625 18.375V8.625C23.5609 7.11708 22.9612 5.67138 21.8949 4.60511C20.8286 3.53885 19.3829 2.93911 17.875 2.9375ZM21.9375 18.375C21.9375 19.4524 21.5095 20.4858 20.7476 21.2476C19.9858 22.0095 18.9524 22.4375 17.875 22.4375H8.125C7.04756 22.4375 6.01425 22.0095 5.25238 21.2476C4.49051 20.4858 4.0625 19.4524 4.0625 18.375V8.625C4.0625 7.54756 4.49051 6.51425 5.25238 5.75238C6.01425 4.99051 7.04756 4.5625 8.125 4.5625H17.875C18.9524 4.5625 19.9858 4.99051 20.7476 5.75238C21.5095 6.51425 21.9375 7.54756 21.9375 8.625V18.375ZM19.5 8.21875C19.5 8.4598 19.4285 8.69543 19.2946 8.89585C19.1607 9.09627 18.9703 9.25248 18.7476 9.34473C18.5249 9.43697 18.2799 9.46111 18.0435 9.41408C17.8071 9.36706 17.5899 9.25098 17.4195 9.08054C17.249 8.91009 17.1329 8.69293 17.0859 8.45652C17.0389 8.2201 17.063 7.97505 17.1553 7.75235C17.2475 7.52966 17.4037 7.33931 17.6041 7.2054C17.8046 7.07148 18.0402 7 18.2812 7C18.6045 7 18.9145 7.1284 19.143 7.35696C19.3716 7.58552 19.5 7.89552 19.5 8.21875Z" fill="black"/>
</svg>
