<svg width="41" height="41" viewBox="0 0 41 41" fill="none" xmlns="http://www.w3.org/2000/svg">
<path d="M35.665 8.33984H5.66504C5.33352 8.33984 5.01558 8.47154 4.78116 8.70596C4.54674 8.94038 4.41504 9.25832 4.41504 9.58984V30.8398C4.41504 31.5029 4.67843 32.1388 5.14727 32.6076C5.61611 33.0765 6.252 33.3398 6.91504 33.3398H34.415C35.0781 33.3398 35.714 33.0765 36.1828 32.6076C36.6516 32.1388 36.915 31.5029 36.915 30.8398V9.58984C36.915 9.25832 36.7833 8.94038 36.5489 8.70596C36.3145 8.47154 35.9966 8.33984 35.665 8.33984ZM20.665 21.6445L8.8791 10.8398H32.451L20.665 21.6445ZM16.0885 20.8398L6.91504 29.2477V12.432L16.0885 20.8398ZM17.9385 22.5352L19.8135 24.2617C20.0441 24.4734 20.3457 24.5909 20.6588 24.5909C20.9718 24.5909 21.2735 24.4734 21.5041 24.2617L23.3791 22.5352L32.4416 30.8398H8.8791L17.9385 22.5352ZM25.2416 20.8398L34.415 12.4305V29.2492L25.2416 20.8398Z" fill="#6666FF"/>
</svg>
