<svg width="21" height="21" viewBox="0 0 21 21" fill="none" xmlns="http://www.w3.org/2000/svg">
<path fill-rule="evenodd" clip-rule="evenodd" d="M17.3744 6.10236C17.5619 6.28988 17.6672 6.54419 17.6672 6.80936C17.6672 7.07452 17.5619 7.32883 17.3744 7.51636L9.3744 15.5164C9.18687 15.7038 8.93256 15.8091 8.6674 15.8091C8.40224 15.8091 8.14793 15.7038 7.9604 15.5164L3.9604 11.5164C3.77824 11.3278 3.67745 11.0752 3.67973 10.813C3.682 10.5508 3.78717 10.2999 3.97258 10.1145C4.15799 9.92913 4.4088 9.82396 4.671 9.82168C4.93319 9.8194 5.1858 9.9202 5.3744 10.1024L8.6674 13.3954L15.9604 6.10236C16.1479 5.91489 16.4022 5.80957 16.6674 5.80957C16.9326 5.80957 17.1869 5.91489 17.3744 6.10236Z" fill="#CBFB45"/>
</svg>
