<svg width="41" height="41" viewBox="0 0 41 41" fill="none" xmlns="http://www.w3.org/2000/svg">
<path d="M11.5802 20.6201C11.5891 23.899 10.8315 27.1345 9.36767 30.0686C9.2978 30.2207 9.19809 30.3572 9.07445 30.4701C8.95081 30.5829 8.80577 30.6698 8.64792 30.7255C8.49007 30.7812 8.32264 30.8047 8.15556 30.7945C7.98847 30.7843 7.82514 30.7406 7.67525 30.6661C7.52536 30.5916 7.39197 30.4877 7.28298 30.3606C7.174 30.2336 7.09165 30.0859 7.04081 29.9264C6.98997 29.7669 6.97168 29.5989 6.98703 29.4322C7.00238 29.2655 7.05106 29.1036 7.13017 28.9561C8.4208 26.3673 9.08855 23.5127 9.08017 20.6201C9.07723 18.9333 9.45508 17.2676 10.1855 15.7471C10.916 14.2267 11.9802 12.8907 13.2989 11.8389C13.5577 11.6317 13.8882 11.5358 14.2177 11.5722C14.5472 11.6087 14.8488 11.7746 15.056 12.0334C15.2632 12.2922 15.3591 12.6227 15.3226 12.9522C15.2861 13.2817 15.1202 13.5832 14.8614 13.7904C13.8356 14.6083 13.0076 15.6473 12.4395 16.8299C11.8713 18.0125 11.5776 19.3081 11.5802 20.6201ZM20.3302 19.3701C19.9986 19.3701 19.6807 19.5018 19.4463 19.7362C19.2119 19.9707 19.0802 20.2886 19.0802 20.6201C19.0799 25.4901 17.8434 30.2803 15.4864 34.542C15.3256 34.8321 15.2867 35.1741 15.3781 35.493C15.4695 35.8118 15.6838 36.0812 15.9739 36.242C16.264 36.4028 16.6061 36.4417 16.9249 36.3503C17.2437 36.2589 17.5131 36.0446 17.6739 35.7545C20.2358 31.1216 21.5798 25.9142 21.5802 20.6201C21.5802 20.2886 21.4485 19.9707 21.2141 19.7362C20.9796 19.5018 20.6617 19.3701 20.3302 19.3701ZM20.3302 14.3701C18.6726 14.3701 17.0829 15.0286 15.9108 16.2007C14.7386 17.3728 14.0802 18.9625 14.0802 20.6201C14.0802 20.9516 14.2119 21.2696 14.4463 21.504C14.6807 21.7384 14.9986 21.8701 15.3302 21.8701C15.6617 21.8701 15.9796 21.7384 16.2141 21.504C16.4485 21.2696 16.5802 20.9516 16.5802 20.6201C16.5802 19.6256 16.9753 18.6717 17.6785 17.9685C18.3818 17.2652 19.3356 16.8701 20.3302 16.8701C21.3247 16.8701 22.2786 17.2652 22.9818 17.9685C23.6851 18.6717 24.0802 19.6256 24.0802 20.6201C24.0931 25.5904 22.9984 30.501 20.8755 34.9951C20.8054 35.144 20.7653 35.3052 20.7576 35.4695C20.7498 35.6339 20.7745 35.7982 20.8302 35.953C20.8859 36.1078 20.9716 36.2501 21.0823 36.3718C21.193 36.4935 21.3266 36.5922 21.4755 36.6623C21.6243 36.7324 21.7856 36.7724 21.9499 36.7802C22.1143 36.788 22.2785 36.7633 22.4333 36.7076C22.5882 36.6519 22.7305 36.5662 22.8522 36.4555C22.9739 36.3448 23.0726 36.2112 23.1427 36.0623C25.4213 31.2341 26.5956 25.9589 26.5802 20.6201C26.5802 18.9625 25.9217 17.3728 24.7496 16.2007C23.5775 15.0286 21.9878 14.3701 20.3302 14.3701ZM20.3302 4.37012C16.0218 4.37467 11.8912 6.08818 8.84471 9.13466C5.79823 12.1811 4.08472 16.3117 4.08017 20.6201C4.08249 22.1811 3.81828 23.7309 3.29892 25.2029C3.18848 25.5156 3.20677 25.8593 3.34977 26.1585C3.49277 26.4577 3.74875 26.6878 4.06142 26.7982C4.37408 26.9087 4.71782 26.8904 5.01699 26.7474C5.31617 26.6044 5.54629 26.3484 5.65673 26.0357C6.26997 24.2961 6.58226 22.4647 6.58017 20.6201C6.58017 16.9734 8.02883 13.476 10.6075 10.8974C13.1861 8.31877 16.6834 6.87012 20.3302 6.87012C23.9769 6.87012 27.4743 8.31877 30.0529 10.8974C32.6315 13.476 34.0802 16.9734 34.0802 20.6201C34.0808 23.4761 33.804 26.3254 33.2536 29.1279C33.2218 29.289 33.222 29.4548 33.2542 29.6158C33.2865 29.7768 33.3501 29.9298 33.4415 30.0662C33.5329 30.2026 33.6503 30.3197 33.787 30.4107C33.9236 30.5017 34.0769 30.5649 34.238 30.5967C34.3178 30.6121 34.3989 30.62 34.4802 30.6201C34.7694 30.6198 35.0496 30.5192 35.273 30.3354C35.4964 30.1516 35.6491 29.8961 35.7052 29.6123C36.2873 26.6503 36.5803 23.6388 36.5802 20.6201C36.5752 16.3119 34.8616 12.1815 31.8152 9.13511C28.7688 6.08872 24.6384 4.37508 20.3302 4.37012ZM15.0802 24.3967C14.756 24.3322 14.4194 24.3987 14.1442 24.5817C13.8689 24.7648 13.6774 25.0493 13.6114 25.3732C13.1042 27.8696 12.1961 30.2673 10.9224 32.4732C10.7566 32.7604 10.7117 33.1017 10.7976 33.422C10.8834 33.7422 11.093 34.0153 11.3802 34.1811C11.6673 34.3468 12.0086 34.3917 12.3289 34.3058C12.6492 34.22 12.9222 34.0104 13.088 33.7232C14.4956 31.2838 15.4982 28.6322 16.0567 25.8717C16.0896 25.7107 16.0904 25.5448 16.059 25.3835C16.0277 25.2223 15.9649 25.0687 15.8742 24.9317C15.7835 24.7947 15.6667 24.677 15.5305 24.5852C15.3942 24.4933 15.2412 24.4293 15.0802 24.3967ZM20.3302 9.37012C19.8601 9.37022 19.3904 9.39944 18.9239 9.45762C18.6011 9.50607 18.3101 9.67887 18.113 9.93906C17.916 10.1993 17.8285 10.5262 17.8693 10.8501C17.9101 11.1739 18.076 11.4689 18.3314 11.6721C18.5869 11.8753 18.9117 11.9704 19.2364 11.9373C20.4679 11.7842 21.7178 11.8944 22.9034 12.2605C24.0891 12.6267 25.1834 13.2406 26.1141 14.0614C27.0447 14.8823 27.7903 15.8915 28.3017 17.0221C28.813 18.1528 29.0784 19.3792 29.0802 20.6201C29.0798 22.2393 28.9796 23.857 28.7802 25.4639C28.7582 25.6273 28.7689 25.7934 28.8114 25.9527C28.854 26.112 28.9276 26.2613 29.0281 26.392C29.1286 26.5227 29.254 26.6323 29.397 26.7143C29.54 26.7964 29.6979 26.8493 29.8614 26.8701C29.9133 26.8764 29.9654 26.8795 30.0177 26.8795C30.3217 26.8788 30.615 26.7674 30.8428 26.5661C31.0706 26.3648 31.2172 26.0874 31.2552 25.7857C31.466 24.0751 31.5703 22.3531 31.5677 20.6295C31.5668 17.6474 30.3833 14.7873 28.2767 12.6765C26.1701 10.5658 23.3123 9.37674 20.3302 9.37012ZM29.3817 29.4092C29.2227 29.3681 29.0571 29.3587 28.8945 29.3816C28.7318 29.4045 28.5753 29.4592 28.4338 29.5427C28.2923 29.6261 28.1687 29.7366 28.0699 29.8679C27.9712 29.9991 27.8993 30.1486 27.8583 30.3076C27.6302 31.1967 27.3661 32.0889 27.077 32.9639C26.9713 33.2774 26.9941 33.62 27.1406 33.9167C27.287 34.2134 27.5451 34.44 27.8583 34.5467C27.9866 34.5903 28.1212 34.6125 28.2567 34.6123C28.5186 34.6121 28.7739 34.5296 28.9864 34.3766C29.1989 34.2235 29.358 34.0075 29.4411 33.7592C29.7536 32.8342 30.0333 31.8842 30.277 30.9389C30.3189 30.7798 30.3291 30.6141 30.3068 30.4512C30.2845 30.2882 30.2303 30.1313 30.1473 29.9893C30.0643 29.8474 29.954 29.7232 29.8229 29.6239C29.6918 29.5246 29.5424 29.4522 29.3833 29.4107L29.3817 29.4092Z" fill="#6666FF"/>
</svg>
