<svg width="21" height="21" viewBox="0 0 21 21" fill="none" xmlns="http://www.w3.org/2000/svg">
<path fill-rule="evenodd" clip-rule="evenodd" d="M17.0404 6.10236C17.2279 6.28988 17.3332 6.54419 17.3332 6.80936C17.3332 7.07452 17.2279 7.32883 17.0404 7.51636L9.04041 15.5164C8.85289 15.7038 8.59858 15.8091 8.33342 15.8091C8.06825 15.8091 7.81394 15.7038 7.62642 15.5164L3.62641 11.5164C3.44426 11.3278 3.34346 11.0752 3.34574 10.813C3.34802 10.5508 3.45319 10.2999 3.6386 10.1145C3.824 9.92913 4.07482 9.82396 4.33701 9.82168C4.59921 9.8194 4.85181 9.9202 5.04041 10.1024L8.33342 13.3954L15.6264 6.10236C15.8139 5.91489 16.0683 5.80957 16.3334 5.80957C16.5986 5.80957 16.8529 5.91489 17.0404 6.10236Z" fill="#CBFB45"/>
</svg>
