<svg width="18" height="19" viewBox="0 0 18 19" fill="none" xmlns="http://www.w3.org/2000/svg">
<path fill-rule="evenodd" clip-rule="evenodd" d="M15.0362 5.55355C15.2049 5.72232 15.2997 5.9512 15.2997 6.18985C15.2997 6.42849 15.2049 6.65737 15.0362 6.82615L7.83618 14.0261C7.6674 14.1949 7.43853 14.2897 7.19988 14.2897C6.96123 14.2897 6.73235 14.1949 6.56358 14.0261L2.96358 10.4261C2.79964 10.2564 2.70892 10.0291 2.71097 9.79309C2.71302 9.55711 2.80767 9.33138 2.97454 9.16451C3.14141 8.99764 3.36714 8.90299 3.60312 8.90094C3.83909 8.89889 4.06644 8.9896 4.23618 9.15355L7.19988 12.1172L13.7636 5.55355C13.9324 5.38482 14.1612 5.29004 14.3999 5.29004C14.6385 5.29004 14.8674 5.38482 15.0362 5.55355Z" fill="#726FF7"/>
</svg>
