<svg width="40" height="41" viewBox="0 0 40 41" fill="none" xmlns="http://www.w3.org/2000/svg">
<path d="M36.0797 27.7147C36.2448 28.0012 36.2896 28.3415 36.2044 28.661C36.1192 28.9805 35.9109 29.2532 35.625 29.4194L20.625 38.1694C20.4339 38.2809 20.2166 38.3396 19.9953 38.3396C19.7741 38.3396 19.5568 38.2809 19.3656 38.1694L4.36563 29.4194C4.0839 29.2501 3.88018 28.9767 3.79859 28.6583C3.717 28.3399 3.7641 28.0022 3.92969 27.7182C4.09528 27.4343 4.36603 27.227 4.68333 27.1413C5.00062 27.0555 5.33893 27.0982 5.625 27.26L20 35.6428L34.375 27.26C34.6615 27.0949 35.0018 27.0501 35.3213 27.1353C35.6407 27.2205 35.9135 27.4289 36.0797 27.7147ZM34.375 19.76L20 28.1428L5.625 19.76C5.34038 19.6183 5.01246 19.5904 4.70798 19.6819C4.40349 19.7735 4.14534 19.9776 3.98605 20.2528C3.82676 20.5279 3.77832 20.8535 3.85058 21.1631C3.92284 21.4727 4.11037 21.7432 4.375 21.9194L19.375 30.6694C19.5661 30.7809 19.7834 30.8396 20.0047 30.8396C20.2259 30.8396 20.4432 30.7809 20.6344 30.6694L35.6344 21.9194C35.7784 21.8379 35.9049 21.7286 36.0064 21.5978C36.1079 21.467 36.1824 21.3174 36.2255 21.1576C36.2687 20.9978 36.2798 20.831 36.258 20.6669C36.2362 20.5028 36.182 20.3447 36.0986 20.2017C36.0152 20.0587 35.9043 19.9337 35.7722 19.834C35.6401 19.7342 35.4895 19.6617 35.3291 19.6206C35.1688 19.5795 35.0019 19.5707 34.8381 19.5946C34.6743 19.6185 34.5169 19.6748 34.375 19.76ZM3.75 13.3397C3.7505 13.1208 3.80849 12.9058 3.91818 12.7163C4.02786 12.5269 4.18539 12.3695 4.375 12.26L19.375 3.51003C19.5661 3.39857 19.7834 3.33984 20.0047 3.33984C20.2259 3.33984 20.4432 3.39857 20.6344 3.51003L35.6344 12.26C35.8231 12.3701 35.9796 12.5277 36.0884 12.7172C36.1972 12.9066 36.2545 13.1213 36.2545 13.3397C36.2545 13.5582 36.1972 13.7728 36.0884 13.9623C35.9796 14.1517 35.8231 14.3093 35.6344 14.4194L20.6344 23.1694C20.4432 23.2809 20.2259 23.3396 20.0047 23.3396C19.7834 23.3396 19.5661 23.2809 19.375 23.1694L4.375 14.4194C4.18539 14.3099 4.02786 14.1526 3.91818 13.9631C3.80849 13.7736 3.7505 13.5587 3.75 13.3397ZM7.48125 13.3397L20 20.6428L32.5187 13.3397L20 6.03659L7.48125 13.3397Z" fill="#726FF7"/>
</svg>
