<svg width="41" height="41" viewBox="0 0 41 41" fill="none" xmlns="http://www.w3.org/2000/svg">
<path d="M32.8301 6.47949H7.83008C7.16704 6.47949 6.53115 6.74288 6.06231 7.21173C5.59347 7.68057 5.33008 8.31645 5.33008 8.97949V18.1639C5.33008 32.1654 17.177 36.8107 19.5488 37.5998C20.0554 37.7721 20.6047 37.7721 21.1113 37.5998C23.4863 36.8107 35.3301 32.1654 35.3301 18.1639V8.97949C35.3301 8.31645 35.0667 7.68057 34.5978 7.21173C34.129 6.74288 33.4931 6.47949 32.8301 6.47949ZM32.8301 18.1654C32.8301 30.4186 22.4629 34.5123 20.3301 35.2248C18.216 34.5201 7.83008 30.4295 7.83008 18.1654V8.97949H32.8301V18.1654ZM13.1957 22.3639C12.9612 22.1293 12.8294 21.8112 12.8294 21.4795C12.8294 21.1478 12.9612 20.8297 13.1957 20.5951C13.4303 20.3606 13.7484 20.2288 14.0801 20.2288C14.4118 20.2288 14.7299 20.3606 14.9645 20.5951L17.8301 23.4607L25.6957 15.5951C25.8118 15.479 25.9497 15.3869 26.1015 15.324C26.2532 15.2611 26.4158 15.2288 26.5801 15.2288C26.7443 15.2288 26.907 15.2611 27.0587 15.324C27.2104 15.3869 27.3483 15.479 27.4645 15.5951C27.5806 15.7113 27.6727 15.8491 27.7356 16.0009C27.7984 16.1526 27.8308 16.3152 27.8308 16.4795C27.8308 16.6437 27.7984 16.8064 27.7356 16.9581C27.6727 17.1099 27.5806 17.2477 27.4645 17.3639L18.7145 26.1139C18.5984 26.2301 18.4605 26.3223 18.3088 26.3852C18.157 26.4481 17.9943 26.4805 17.8301 26.4805C17.6658 26.4805 17.5031 26.4481 17.3514 26.3852C17.1997 26.3223 17.0618 26.2301 16.9457 26.1139L13.1957 22.3639Z" fill="#6666FF"/>
</svg>
