<svg width="41" height="41" viewBox="0 0 41 41" fill="none" xmlns="http://www.w3.org/2000/svg">
<path d="M20.665 14.3701C19.4289 14.3701 18.2205 14.7367 17.1927 15.4234C16.1649 16.1102 15.3638 17.0863 14.8908 18.2283C14.4177 19.3704 14.294 20.6271 14.5351 21.8394C14.7763 23.0518 15.3715 24.1655 16.2456 25.0395C17.1197 25.9136 18.2333 26.5089 19.4457 26.75C20.6581 26.9912 21.9148 26.8674 23.0568 26.3944C24.1988 25.9213 25.175 25.1202 25.8617 24.0924C26.5485 23.0646 26.915 21.8563 26.915 20.6201C26.915 18.9625 26.2566 17.3728 25.0845 16.2007C23.9124 15.0286 22.3226 14.3701 20.665 14.3701ZM20.665 24.3701C19.9234 24.3701 19.1983 24.1502 18.5816 23.7381C17.965 23.3261 17.4843 22.7404 17.2005 22.0552C16.9167 21.37 16.8424 20.616 16.9871 19.8885C17.1318 19.1611 17.4889 18.4929 18.0134 17.9685C18.5378 17.444 19.206 17.0869 19.9335 16.9422C20.6609 16.7975 21.4149 16.8717 22.1001 17.1556C22.7853 17.4394 23.371 17.92 23.7831 18.5367C24.1951 19.1534 24.415 19.8784 24.415 20.6201C24.415 21.6147 24.02 22.5685 23.3167 23.2718C22.6134 23.975 21.6596 24.3701 20.665 24.3701ZM38.165 9.37012H3.16504C2.83352 9.37012 2.51558 9.50181 2.28116 9.73623C2.04674 9.97065 1.91504 10.2886 1.91504 10.6201V30.6201C1.91504 30.9516 2.04674 31.2696 2.28116 31.504C2.51558 31.7384 2.83352 31.8701 3.16504 31.8701H38.165C38.4966 31.8701 38.8145 31.7384 39.0489 31.504C39.2833 31.2696 39.415 30.9516 39.415 30.6201V10.6201C39.415 10.2886 39.2833 9.97065 39.0489 9.73623C38.8145 9.50181 38.4966 9.37012 38.165 9.37012ZM30.9229 29.3701H10.4072C9.98755 27.9507 9.21943 26.6589 8.17283 25.6123C7.12623 24.5657 5.83441 23.7976 4.41504 23.3779V17.8623C5.83441 17.4426 7.12623 16.6745 8.17283 15.6279C9.21943 14.5813 9.98755 13.2895 10.4072 11.8701H30.9229C31.3425 13.2895 32.1107 14.5813 33.1573 15.6279C34.2039 16.6745 35.4957 17.4426 36.915 17.8623V23.3779C35.4957 23.7976 34.2039 24.5657 33.1573 25.6123C32.1107 26.6589 31.3425 27.9507 30.9229 29.3701ZM36.915 15.2092C35.4157 14.5645 34.2207 13.3694 33.576 11.8701H36.915V15.2092ZM7.7541 11.8701C7.1094 13.3694 5.91436 14.5645 4.41504 15.2092V11.8701H7.7541ZM4.41504 26.0311C5.91436 26.6758 7.1094 27.8708 7.7541 29.3701H4.41504V26.0311ZM33.576 29.3701C34.2207 27.8708 35.4157 26.6758 36.915 26.0311V29.3701H33.576Z" fill="#6666FF"/>
</svg>
