<svg width="18" height="19" viewBox="0 0 18 19" fill="none" xmlns="http://www.w3.org/2000/svg">
<path fill-rule="evenodd" clip-rule="evenodd" d="M15.0362 5.74398C15.2049 5.91275 15.2997 6.14163 15.2997 6.38028C15.2997 6.61892 15.2049 6.8478 15.0362 7.01658L7.83618 14.2166C7.6674 14.3853 7.43853 14.4801 7.19988 14.4801C6.96123 14.4801 6.73235 14.3853 6.56358 14.2166L2.96358 10.6166C2.79964 10.4468 2.70892 10.2195 2.71097 9.98352C2.71302 9.74754 2.80767 9.52181 2.97454 9.35494C3.14141 9.18807 3.36714 9.09342 3.60312 9.09137C3.83909 9.08932 4.06644 9.18003 4.23618 9.34398L7.19988 12.3077L13.7636 5.74398C13.9324 5.57525 14.1612 5.48047 14.3999 5.48047C14.6385 5.48047 14.8674 5.57525 15.0362 5.74398Z" fill="#CBFB45"/>
</svg>
