<svg width="17" height="17" viewBox="0 0 17 17" fill="none" xmlns="http://www.w3.org/2000/svg">
<path fill-rule="evenodd" clip-rule="evenodd" d="M3.66088 4.44625C3.75463 4.35261 3.88171 4.30002 4.01421 4.30002C4.14671 4.30002 4.27379 4.35261 4.36754 4.44625L8.01421 8.09291L11.6609 4.44625C11.7066 4.39712 11.7618 4.35772 11.8232 4.33039C11.8845 4.30307 11.9507 4.28837 12.0179 4.28719C12.085 4.286 12.1517 4.29835 12.2139 4.3235C12.2762 4.34865 12.3328 4.38608 12.3802 4.43356C12.4277 4.48104 12.4651 4.53759 12.4903 4.59985C12.5154 4.66211 12.5278 4.72879 12.5266 4.79593C12.5254 4.86307 12.5107 4.92927 12.4834 4.99061C12.4561 5.05194 12.4167 5.10714 12.3675 5.15291L8.72088 8.79958L12.3675 12.4462C12.4167 12.492 12.4561 12.5472 12.4834 12.6086C12.5107 12.6699 12.5254 12.7361 12.5266 12.8032C12.5278 12.8704 12.5154 12.9371 12.4903 12.9993C12.4651 13.0616 12.4277 13.1181 12.3802 13.1656C12.3328 13.2131 12.2762 13.2505 12.2139 13.2757C12.1517 13.3008 12.085 13.3132 12.0179 13.312C11.9507 13.3108 11.8845 13.2961 11.8232 13.2688C11.7618 13.2414 11.7066 13.202 11.6609 13.1529L8.01421 9.50625L4.36754 13.1529C4.27276 13.2412 4.14739 13.2893 4.01786 13.287C3.88833 13.2847 3.76474 13.2323 3.67313 13.1407C3.58152 13.0491 3.52904 12.9255 3.52676 12.7959C3.52447 12.6664 3.57255 12.541 3.66088 12.4462L7.30754 8.79958L3.66088 5.15291C3.56724 5.05916 3.51465 4.93208 3.51465 4.79958C3.51465 4.66708 3.56724 4.54 3.66088 4.44625Z" fill="black"/>
</svg>
