<svg width="17" height="17" viewBox="0 0 17 17" fill="none" xmlns="http://www.w3.org/2000/svg">
<path fill-rule="evenodd" clip-rule="evenodd" d="M4.44701 4.44625C4.54076 4.35261 4.66784 4.30002 4.80034 4.30002C4.93284 4.30002 5.05992 4.35261 5.15367 4.44625L8.80034 8.09291L12.447 4.44625C12.4928 4.39712 12.548 4.35772 12.6093 4.33039C12.6706 4.30307 12.7369 4.28837 12.804 4.28719C12.8711 4.286 12.9378 4.29835 13.0001 4.3235C13.0623 4.34865 13.1189 4.38608 13.1664 4.43356C13.2138 4.48104 13.2513 4.53759 13.2764 4.59985C13.3016 4.66211 13.3139 4.72879 13.3127 4.79593C13.3116 4.86307 13.2969 4.92927 13.2695 4.99061C13.2422 5.05194 13.2028 5.10714 13.1537 5.15291L9.50701 8.79958L13.1537 12.4462C13.2028 12.492 13.2422 12.5472 13.2695 12.6086C13.2969 12.6699 13.3116 12.7361 13.3127 12.8032C13.3139 12.8704 13.3016 12.9371 13.2764 12.9993C13.2513 13.0616 13.2138 13.1181 13.1664 13.1656C13.1189 13.2131 13.0623 13.2505 13.0001 13.2757C12.9378 13.3008 12.8711 13.3132 12.804 13.312C12.7369 13.3108 12.6706 13.2961 12.6093 13.2688C12.548 13.2414 12.4928 13.202 12.447 13.1529L8.80034 9.50625L5.15367 13.1529C5.05889 13.2412 4.93353 13.2893 4.80399 13.287C4.67446 13.2847 4.55087 13.2323 4.45926 13.1407C4.36765 13.0491 4.31518 12.9255 4.31289 12.7959C4.31061 12.6664 4.35869 12.541 4.44701 12.4462L8.09367 8.79958L4.44701 5.15291C4.35337 5.05916 4.30078 4.93208 4.30078 4.79958C4.30078 4.66708 4.35337 4.54 4.44701 4.44625Z" fill="black"/>
</svg>
