<svg width="40" height="41" viewBox="0 0 40 41" fill="none" xmlns="http://www.w3.org/2000/svg">
<path d="M34.9451 10.5653L21.1951 3.0419C20.8277 2.8389 20.4149 2.73242 19.9951 2.73242C19.5754 2.73242 19.1625 2.8389 18.7951 3.0419L5.04512 10.5685C4.65244 10.7833 4.32465 11.0996 4.09598 11.4844C3.8673 11.8692 3.74613 12.3084 3.74512 12.756V27.6997C3.74613 28.1473 3.8673 28.5864 4.09598 28.9712C4.32465 29.356 4.65244 29.6724 5.04512 29.8872L18.7951 37.4138C19.1625 37.6168 19.5754 37.7233 19.9951 37.7233C20.4149 37.7233 20.8277 37.6168 21.1951 37.4138L34.9451 29.8872C35.3378 29.6724 35.6656 29.356 35.8943 28.9712C36.1229 28.5864 36.2441 28.1473 36.2451 27.6997V12.7575C36.2449 12.3091 36.1242 11.869 35.8954 11.4833C35.6667 11.0976 35.3385 10.7806 34.9451 10.5653ZM19.9951 5.2294L32.5482 12.1044L27.8967 14.6513L15.342 7.77627L19.9951 5.2294ZM19.9951 18.9794L7.44199 12.1044L12.7389 9.2044L25.292 16.0794L19.9951 18.9794ZM6.24512 14.2919L18.7451 21.1325V34.5372L6.24512 27.7013V14.2919ZM33.7451 27.695L21.2451 34.5372V21.1388L26.2451 18.4028V23.9794C26.2451 24.3109 26.3768 24.6289 26.6112 24.8633C26.8457 25.0977 27.1636 25.2294 27.4951 25.2294C27.8266 25.2294 28.1446 25.0977 28.379 24.8633C28.6134 24.6289 28.7451 24.3109 28.7451 23.9794V17.0341L33.7451 14.2919V27.6935V27.695Z" fill="#6666FF"/>
</svg>
