<svg width="20" height="21" viewBox="0 0 20 21" fill="none" xmlns="http://www.w3.org/2000/svg">
<path fill-rule="evenodd" clip-rule="evenodd" d="M16.7069 6.10236C16.8944 6.28988 16.9997 6.54419 16.9997 6.80936C16.9997 7.07452 16.8944 7.32883 16.7069 7.51636L8.70692 15.5164C8.51939 15.7038 8.26508 15.8091 7.99992 15.8091C7.73475 15.8091 7.48045 15.7038 7.29292 15.5164L3.29292 11.5164C3.11076 11.3278 3.00997 11.0752 3.01224 10.813C3.01452 10.5508 3.11969 10.2999 3.3051 10.1145C3.49051 9.92913 3.74132 9.82396 4.00352 9.82168C4.26571 9.8194 4.51832 9.9202 4.70692 10.1024L7.99992 13.3954L15.2929 6.10236C15.4804 5.91489 15.7348 5.80957 15.9999 5.80957C16.2651 5.80957 16.5194 5.91489 16.7069 6.10236Z" fill="#CBFB45"/>
</svg>
