<svg width="21" height="21" viewBox="0 0 21 21" fill="none" xmlns="http://www.w3.org/2000/svg">
<path fill-rule="evenodd" clip-rule="evenodd" d="M17.3021 6.09357C17.4896 6.2811 17.5949 6.5354 17.5949 6.80057C17.5949 7.06573 17.4896 7.32004 17.3021 7.50757L9.30213 15.5076C9.11461 15.695 8.8603 15.8004 8.59513 15.8004C8.32997 15.8004 8.07566 15.695 7.88813 15.5076L3.88813 11.5076C3.70598 11.319 3.60518 11.0664 3.60746 10.8042C3.60974 10.542 3.71491 10.2912 3.90032 10.1057C4.08572 9.92034 4.33654 9.81517 4.59873 9.81289C4.86093 9.81062 5.11353 9.91141 5.30213 10.0936L8.59513 13.3866L15.8881 6.09357C16.0757 5.9061 16.33 5.80078 16.5951 5.80078C16.8603 5.80078 17.1146 5.9061 17.3021 6.09357Z" fill="black"/>
</svg>
