<svg width="40" height="41" viewBox="0 0 40 41" fill="none" xmlns="http://www.w3.org/2000/svg">
<path d="M32.5 5.81982H28.75V4.56982C28.75 4.2383 28.6183 3.92036 28.3839 3.68594C28.1495 3.45152 27.8315 3.31982 27.5 3.31982C27.1685 3.31982 26.8505 3.45152 26.6161 3.68594C26.3817 3.92036 26.25 4.2383 26.25 4.56982V5.81982H13.75V4.56982C13.75 4.2383 13.6183 3.92036 13.3839 3.68594C13.1495 3.45152 12.8315 3.31982 12.5 3.31982C12.1685 3.31982 11.8505 3.45152 11.6161 3.68594C11.3817 3.92036 11.25 4.2383 11.25 4.56982V5.81982H7.5C6.83696 5.81982 6.20107 6.08322 5.73223 6.55206C5.26339 7.0209 5 7.65678 5 8.31982V33.3198C5 33.9829 5.26339 34.6187 5.73223 35.0876C6.20107 35.5564 6.83696 35.8198 7.5 35.8198H32.5C33.163 35.8198 33.7989 35.5564 34.2678 35.0876C34.7366 34.6187 35 33.9829 35 33.3198V8.31982C35 7.65678 34.7366 7.0209 34.2678 6.55206C33.7989 6.08322 33.163 5.81982 32.5 5.81982ZM11.25 8.31982V9.56982C11.25 9.90134 11.3817 10.2193 11.6161 10.4537C11.8505 10.6881 12.1685 10.8198 12.5 10.8198C12.8315 10.8198 13.1495 10.6881 13.3839 10.4537C13.6183 10.2193 13.75 9.90134 13.75 9.56982V8.31982H26.25V9.56982C26.25 9.90134 26.3817 10.2193 26.6161 10.4537C26.8505 10.6881 27.1685 10.8198 27.5 10.8198C27.8315 10.8198 28.1495 10.6881 28.3839 10.4537C28.6183 10.2193 28.75 9.90134 28.75 9.56982V8.31982H32.5V13.3198H7.5V8.31982H11.25ZM32.5 33.3198H7.5V15.8198H32.5V33.3198ZM24.6344 21.7042L21.7672 24.5698L24.6344 27.4354C24.7505 27.5516 24.8426 27.6895 24.9055 27.8412C24.9683 27.9929 25.0007 28.1556 25.0007 28.3198C25.0007 28.4841 24.9683 28.6467 24.9055 28.7984C24.8426 28.9502 24.7505 29.0881 24.6344 29.2042C24.5182 29.3203 24.3804 29.4125 24.2286 29.4753C24.0769 29.5382 23.9142 29.5705 23.75 29.5705C23.5858 29.5705 23.4231 29.5382 23.2714 29.4753C23.1196 29.4125 22.9818 29.3203 22.8656 29.2042L20 26.337L17.1344 29.2042C17.0182 29.3203 16.8804 29.4125 16.7286 29.4753C16.5769 29.5382 16.4142 29.5705 16.25 29.5705C16.0858 29.5705 15.9231 29.5382 15.7714 29.4753C15.6196 29.4125 15.4818 29.3203 15.3656 29.2042C15.2495 29.0881 15.1574 28.9502 15.0945 28.7984C15.0317 28.6467 14.9993 28.4841 14.9993 28.3198C14.9993 28.1556 15.0317 27.9929 15.0945 27.8412C15.1574 27.6895 15.2495 27.5516 15.3656 27.4354L18.2328 24.5698L15.3656 21.7042C15.1311 21.4696 14.9993 21.1515 14.9993 20.8198C14.9993 20.4881 15.1311 20.17 15.3656 19.9354C15.6002 19.7009 15.9183 19.5691 16.25 19.5691C16.5817 19.5691 16.8998 19.7009 17.1344 19.9354L20 22.8026L22.8656 19.9354C22.9818 19.8193 23.1196 19.7272 23.2714 19.6643C23.4231 19.6015 23.5858 19.5691 23.75 19.5691C23.9142 19.5691 24.0769 19.6015 24.2286 19.6643C24.3804 19.7272 24.5182 19.8193 24.6344 19.9354C24.7505 20.0516 24.8426 20.1895 24.9055 20.3412C24.9683 20.4929 25.0007 20.6556 25.0007 20.8198C25.0007 20.9841 24.9683 21.1467 24.9055 21.2984C24.8426 21.4502 24.7505 21.5881 24.6344 21.7042Z" fill="#726FF7"/>
</svg>
