<svg width="41" height="41" viewBox="0 0 41 41" fill="none" xmlns="http://www.w3.org/2000/svg">
<path d="M4.91504 19.9793C5.04636 20.0778 5.1958 20.1495 5.35481 20.1902C5.51383 20.2309 5.67931 20.24 5.84182 20.2168C6.00432 20.1935 6.16066 20.1385 6.30191 20.0549C6.44315 19.9713 6.56655 19.8606 6.66504 19.7293C7.42186 18.7202 8.40323 17.9012 9.53143 17.3371C10.6596 16.773 11.9037 16.4793 13.165 16.4793C14.4264 16.4793 15.6704 16.773 16.7986 17.3371C17.9268 17.9012 18.9082 18.7202 19.665 19.7293C19.8642 19.9943 20.1604 20.1693 20.4886 20.2159C20.8168 20.2625 21.15 20.1768 21.415 19.9778C21.5095 19.9075 21.5932 19.8238 21.6635 19.7293C22.4203 18.7202 23.4017 17.9012 24.5299 17.3371C25.6581 16.773 26.9021 16.4793 28.1635 16.4793C29.4248 16.4793 30.6689 16.773 31.7971 17.3371C32.9253 17.9012 33.9067 18.7202 34.6635 19.7293C34.8626 19.9945 35.1589 20.1698 35.4873 20.2165C35.8156 20.2633 36.149 20.1777 36.4143 19.9785C36.6795 19.7794 36.8547 19.4831 36.9015 19.1548C36.9482 18.8264 36.8626 18.493 36.6635 18.2278C35.557 16.7444 34.0816 15.5765 32.3838 14.8403C33.3146 13.9905 33.9667 12.8791 34.2545 11.6521C34.5424 10.4251 34.4526 9.13972 33.9968 7.96466C33.5411 6.78961 32.7408 5.77978 31.7009 5.06771C30.661 4.35565 29.4301 3.97461 28.1697 3.97461C26.9094 3.97461 25.6785 4.35565 24.6386 5.06771C23.5987 5.77978 22.7984 6.78961 22.3426 7.96466C21.8869 9.13972 21.7971 10.4251 22.0849 11.6521C22.3728 12.8791 23.0249 13.9905 23.9557 14.8403C22.7298 15.3703 21.6162 16.1292 20.6744 17.0762C19.7327 16.1292 18.619 15.3703 17.3932 14.8403C18.3239 13.9905 18.976 12.8791 19.2639 11.6521C19.5518 10.4251 19.4619 9.13972 19.0062 7.96466C18.5505 6.78961 17.7501 5.77978 16.7102 5.06771C15.6703 4.35565 14.4394 3.97461 13.1791 3.97461C11.9188 3.97461 10.6879 4.35565 9.64797 5.06771C8.60806 5.77978 7.80772 6.78961 7.352 7.96466C6.89627 9.13972 6.80645 10.4251 7.09431 11.6521C7.38217 12.8791 8.03428 13.9905 8.96504 14.8403C7.25981 15.5742 5.77707 16.7428 4.66504 18.2293C4.56655 18.3606 4.49489 18.5101 4.45415 18.6691C4.41341 18.8281 4.40439 18.9936 4.4276 19.1561C4.45082 19.3186 4.50581 19.4749 4.58945 19.6162C4.67308 19.7574 4.78372 19.8808 4.91504 19.9793ZM28.165 6.47932C28.9067 6.47932 29.6317 6.69925 30.2484 7.11131C30.8651 7.52336 31.3458 8.10903 31.6296 8.79425C31.9134 9.47948 31.9877 10.2335 31.843 10.9609C31.6983 11.6883 31.3411 12.3565 30.8167 12.881C30.2922 13.4054 29.6241 13.7626 28.8966 13.9073C28.1692 14.052 27.4152 13.9777 26.73 13.6939C26.0448 13.41 25.4591 12.9294 25.047 12.3127C24.635 11.696 24.415 10.971 24.415 10.2293C24.415 9.23476 24.8101 8.28093 25.5134 7.57767C26.2167 6.8744 27.1705 6.47932 28.165 6.47932ZM13.165 6.47932C13.9067 6.47932 14.6317 6.69925 15.2484 7.11131C15.8651 7.52336 16.3458 8.10903 16.6296 8.79425C16.9134 9.47948 16.9877 10.2335 16.843 10.9609C16.6983 11.6883 16.3411 12.3565 15.8167 12.881C15.2922 13.4054 14.6241 13.7626 13.8966 13.9073C13.1692 14.052 12.4152 13.9777 11.73 13.6939C11.0448 13.41 10.4591 12.9294 10.047 12.3127C9.63497 11.696 9.41504 10.971 9.41504 10.2293C9.41504 9.23476 9.81013 8.28093 10.5134 7.57767C11.2167 6.8744 12.1705 6.47932 13.165 6.47932ZM32.3838 31.0903C33.3146 30.2405 33.9667 29.1291 34.2545 27.9021C34.5424 26.6751 34.4526 25.3897 33.9968 24.2147C33.5411 23.0396 32.7408 22.0298 31.7009 21.3177C30.661 20.6056 29.4301 20.2246 28.1697 20.2246C26.9094 20.2246 25.6785 20.6056 24.6386 21.3177C23.5987 22.0298 22.7984 23.0396 22.3426 24.2147C21.8869 25.3897 21.7971 26.6751 22.0849 27.9021C22.3728 29.1291 23.0249 30.2405 23.9557 31.0903C22.7298 31.6203 21.6162 32.3792 20.6744 33.3262C19.7327 32.3792 18.619 31.6203 17.3932 31.0903C18.3239 30.2405 18.976 29.1291 19.2639 27.9021C19.5518 26.6751 19.4619 25.3897 19.0062 24.2147C18.5505 23.0396 17.7501 22.0298 16.7102 21.3177C15.6703 20.6056 14.4394 20.2246 13.1791 20.2246C11.9188 20.2246 10.6879 20.6056 9.64797 21.3177C8.60806 22.0298 7.80772 23.0396 7.352 24.2147C6.89627 25.3897 6.80645 26.6751 7.09431 27.9021C7.38217 29.1291 8.03428 30.2405 8.96504 31.0903C7.25981 31.8241 5.77707 32.9928 4.66504 34.4793C4.56655 34.6106 4.49489 34.7601 4.45415 34.9191C4.41341 35.0781 4.40439 35.2436 4.4276 35.4061C4.45082 35.5686 4.50581 35.7249 4.58945 35.8662C4.67308 36.0074 4.78372 36.1308 4.91504 36.2293C5.04636 36.3278 5.1958 36.3995 5.35481 36.4402C5.51383 36.4809 5.67931 36.49 5.84182 36.4668C6.00432 36.4435 6.16066 36.3885 6.30191 36.3049C6.44315 36.2213 6.56655 36.1106 6.66504 35.9793C7.42186 34.9702 8.40323 34.1512 9.53143 33.5871C10.6596 33.023 11.9037 32.7293 13.165 32.7293C14.4264 32.7293 15.6704 33.023 16.7986 33.5871C17.9268 34.1512 18.9082 34.9702 19.665 35.9793C19.8642 36.2443 20.1604 36.4193 20.4886 36.4659C20.8168 36.5125 21.15 36.4268 21.415 36.2278C21.5095 36.1575 21.5932 36.0738 21.6635 35.9793C22.4203 34.9702 23.4017 34.1512 24.5299 33.5871C25.6581 33.023 26.9021 32.7293 28.1635 32.7293C29.4248 32.7293 30.6689 33.023 31.7971 33.5871C32.9253 34.1512 33.9067 34.9702 34.6635 35.9793C34.8626 36.2445 35.1589 36.4198 35.4873 36.4665C35.8156 36.5133 36.149 36.4277 36.4143 36.2285C36.6795 36.0294 36.8547 35.7331 36.9015 35.4048C36.9482 35.0764 36.8626 34.743 36.6635 34.4778C35.557 32.9944 34.0816 31.8265 32.3838 31.0903ZM13.165 22.7293C13.9067 22.7293 14.6317 22.9492 15.2484 23.3613C15.8651 23.7734 16.3458 24.359 16.6296 25.0443C16.9134 25.7295 16.9877 26.4835 16.843 27.2109C16.6983 27.9383 16.3411 28.6065 15.8167 29.131C15.2922 29.6554 14.6241 30.0126 13.8966 30.1573C13.1692 30.302 12.4152 30.2277 11.73 29.9439C11.0448 29.66 10.4591 29.1794 10.047 28.5627C9.63497 27.946 9.41504 27.221 9.41504 26.4793C9.41504 25.4848 9.81013 24.5309 10.5134 23.8277C11.2167 23.1244 12.1705 22.7293 13.165 22.7293ZM28.165 22.7293C28.9067 22.7293 29.6317 22.9492 30.2484 23.3613C30.8651 23.7734 31.3458 24.359 31.6296 25.0443C31.9134 25.7295 31.9877 26.4835 31.843 27.2109C31.6983 27.9383 31.3411 28.6065 30.8167 29.131C30.2922 29.6554 29.6241 30.0126 28.8966 30.1573C28.1692 30.302 27.4152 30.2277 26.73 29.9439C26.0448 29.66 25.4591 29.1794 25.047 28.5627C24.635 27.946 24.415 27.221 24.415 26.4793C24.415 25.4848 24.8101 24.5309 25.5134 23.8277C26.2167 23.1244 27.1705 22.7293 28.165 22.7293Z" fill="#6666FF"/>
</svg>
