<svg width="40" height="41" viewBox="0 0 40 41" fill="none" xmlns="http://www.w3.org/2000/svg">
<path d="M36.2174 30.1198C37.099 28.3278 37.5383 26.3506 37.4987 24.3539C37.459 22.3572 36.9415 20.399 35.9895 18.6434C35.0375 16.8878 33.6787 15.3858 32.0269 14.2633C30.3751 13.1408 28.4783 12.4305 26.4955 12.1917C25.8379 10.6588 24.8802 9.27296 23.6787 8.11591C22.4772 6.95886 21.0563 6.05398 19.4997 5.45458C17.9431 4.85518 16.2823 4.57339 14.6151 4.6258C12.9479 4.67822 11.3081 5.06378 9.79217 5.75977C8.27629 6.45577 6.91504 7.44812 5.78862 8.67836C4.6622 9.90859 3.7934 11.3518 3.2334 12.923C2.6734 14.4943 2.43353 16.1616 2.52792 17.827C2.62231 19.4924 3.04906 21.122 3.78302 22.6198L2.58614 26.8105C2.47934 27.1854 2.47466 27.582 2.57259 27.9593C2.67052 28.3366 2.8675 28.6809 3.14315 28.9566C3.41879 29.2322 3.76309 29.4292 4.14041 29.5271C4.51773 29.6251 4.91436 29.6204 5.28927 29.5136L9.47989 28.3167C10.7444 28.9376 12.1047 29.3406 13.5033 29.5089C14.17 31.0709 15.1481 32.4807 16.3777 33.6522C17.6074 34.8237 19.0629 35.7323 20.6553 36.3226C22.2478 36.9129 23.9439 37.1724 25.64 37.0855C27.3362 36.9985 28.9968 36.5668 30.5205 35.8167L34.7111 37.0136C35.086 37.1204 35.4827 37.1251 35.86 37.0271C36.2373 36.9292 36.5816 36.7322 36.8573 36.4566C37.1329 36.1809 37.3299 35.8366 37.4278 35.4593C37.5258 35.082 37.5211 34.6854 37.4143 34.3105L36.2174 30.1198ZM9.61427 25.7292C9.49809 25.7292 9.38246 25.745 9.27052 25.7761L5.14396 26.9558L6.32364 22.8292C6.41205 22.5148 6.37392 22.1783 6.21739 21.8917C5.06804 19.7816 4.71755 17.328 5.23014 14.9805C5.74273 12.633 7.08408 10.5488 9.00839 9.10983C10.9327 7.67087 13.3111 6.97352 15.7077 7.14556C18.1044 7.3176 20.3588 8.34751 22.0579 10.0466C23.7569 11.7456 24.7868 14 24.9589 16.3967C25.1309 18.7933 24.4335 21.1717 22.9946 23.096C21.5556 25.0203 19.4714 26.3617 17.1239 26.8743C14.7764 27.3869 12.3228 27.0364 10.2127 25.887C10.0298 25.7847 9.82388 25.7304 9.61427 25.7292ZM33.6768 30.3292L34.8565 34.4558L30.7299 33.2761C30.4155 33.1877 30.079 33.2258 29.7924 33.3823C27.4882 34.6359 24.7839 34.9349 22.2615 34.2149C19.7391 33.4949 17.6001 31.8134 16.3049 29.5323C18.0165 29.3541 19.6729 28.824 21.17 27.9754C22.6671 27.1267 23.9727 25.9779 25.0048 24.6008C26.0369 23.2238 26.7733 21.6483 27.1678 19.9732C27.5622 18.2981 27.6063 16.5596 27.2971 14.8667C28.7949 15.2197 30.1911 15.9136 31.3769 16.8945C32.5627 17.8753 33.5061 19.1166 34.1337 20.5216C34.7614 21.9267 35.0562 23.4577 34.9954 24.9954C34.9346 26.533 34.5197 28.0359 33.783 29.387C33.6252 29.6749 33.5871 30.0134 33.6768 30.3292Z" fill="#726FF7"/>
</svg>
