<svg width="40" height="41" viewBox="0 0 40 41" fill="none" xmlns="http://www.w3.org/2000/svg">
<path d="M30.8859 29.9602C31.1192 30.1944 31.2502 30.5116 31.2502 30.8422C31.2502 31.1728 31.1192 31.49 30.8859 31.7242C30.7156 31.8914 26.6906 35.8398 20 35.8398C14.1578 35.8398 9.91719 32.3398 7.5 29.6133V33.3398C7.5 33.6714 7.3683 33.9893 7.13388 34.2237C6.89946 34.4581 6.58152 34.5898 6.25 34.5898C5.91848 34.5898 5.60054 34.4581 5.36612 34.2237C5.1317 33.9893 5 33.6714 5 33.3398V25.8398C5 25.5083 5.1317 25.1904 5.36612 24.956C5.60054 24.7215 5.91848 24.5898 6.25 24.5898H13.75C14.0815 24.5898 14.3995 24.7215 14.6339 24.956C14.8683 25.1904 15 25.5083 15 25.8398C15 26.1714 14.8683 26.4893 14.6339 26.7237C14.3995 26.9581 14.0815 27.0898 13.75 27.0898H8.6625C10.5875 29.4883 14.5312 33.3398 20 33.3398C25.625 33.3398 29.0844 29.9867 29.1187 29.9523C29.3542 29.7191 29.6726 29.589 30.004 29.5904C30.3353 29.5919 30.6526 29.7249 30.8859 29.9602ZM33.75 7.08984C33.4185 7.08984 33.1005 7.22154 32.8661 7.45596C32.6317 7.69038 32.5 8.00832 32.5 8.33984V12.0664C30.0828 9.33984 25.8422 5.83984 20 5.83984C13.3094 5.83984 9.28438 9.78828 9.11562 9.95547C8.88066 10.1896 8.74833 10.5075 8.74774 10.8392C8.74716 11.1709 8.87836 11.4893 9.1125 11.7242C9.34664 11.9592 9.66452 12.0915 9.99623 12.0921C10.3279 12.0927 10.6463 11.9615 10.8812 11.7273C10.9156 11.693 14.375 8.33984 20 8.33984C25.4688 8.33984 29.4125 12.1914 31.3375 14.5898H26.25C25.9185 14.5898 25.6005 14.7215 25.3661 14.956C25.1317 15.1904 25 15.5083 25 15.8398C25 16.1714 25.1317 16.4893 25.3661 16.7237C25.6005 16.9581 25.9185 17.0898 26.25 17.0898H33.75C34.0815 17.0898 34.3995 16.9581 34.6339 16.7237C34.8683 16.4893 35 16.1714 35 15.8398V8.33984C35 8.00832 34.8683 7.69038 34.6339 7.45596C34.3995 7.22154 34.0815 7.08984 33.75 7.08984Z" fill="#726FF7"/>
</svg>
