<svg width="40" height="41" viewBox="0 0 40 41" fill="none" xmlns="http://www.w3.org/2000/svg">
<path d="M34.9951 8.33984H4.99512C4.6636 8.33984 4.34565 8.47154 4.11123 8.70596C3.87681 8.94038 3.74512 9.25832 3.74512 9.58984V30.8398C3.74512 31.5029 4.00851 32.1388 4.47735 32.6076C4.94619 33.0765 5.58208 33.3398 6.24512 33.3398H33.7451C34.4082 33.3398 35.044 33.0765 35.5129 32.6076C35.9817 32.1388 36.2451 31.5029 36.2451 30.8398V9.58984C36.2451 9.25832 36.1134 8.94038 35.879 8.70596C35.6446 8.47154 35.3266 8.33984 34.9951 8.33984ZM6.24512 18.3398H12.4951V23.3398H6.24512V18.3398ZM14.9951 18.3398H33.7451V23.3398H14.9951V18.3398ZM33.7451 10.8398V15.8398H6.24512V10.8398H33.7451ZM6.24512 25.8398H12.4951V30.8398H6.24512V25.8398ZM33.7451 30.8398H14.9951V25.8398H33.7451V30.8398Z" fill="#6666FF"/>
</svg>
