<svg width="21" height="21" viewBox="0 0 21 21" fill="none" xmlns="http://www.w3.org/2000/svg">
<path fill-rule="evenodd" clip-rule="evenodd" d="M16.8969 6.09259C17.0843 6.28012 17.1896 6.53443 17.1896 6.79959C17.1896 7.06476 17.0843 7.31906 16.8969 7.50659L8.89686 15.5066C8.70933 15.6941 8.45502 15.7994 8.18986 15.7994C7.9247 15.7994 7.67039 15.6941 7.48286 15.5066L3.48286 11.5066C3.3007 11.318 3.19991 11.0654 3.20219 10.8032C3.20446 10.541 3.30963 10.2902 3.49504 10.1048C3.68045 9.91936 3.93126 9.8142 4.19346 9.81192C4.45566 9.80964 4.70826 9.91043 4.89686 10.0926L8.18986 13.3856L15.4829 6.09259C15.6704 5.90512 15.9247 5.7998 16.1899 5.7998C16.455 5.7998 16.7093 5.90512 16.8969 6.09259Z" fill="black"/>
</svg>
